<svg width="62" height="61" viewBox="0 0 62 61" fill="none" xmlns="http://www.w3.org/2000/svg">
<g filter="url(#filter0_d_215_2387)">
<rect x="6" y="2" width="50" height="50" rx="12" fill="#4FD1C5"/>
</g>
<mask id="mask0_215_2387" style="mask-type:alpha" maskUnits="userSpaceOnUse" x="6" y="2" width="50" height="50">
<rect x="6" y="2" width="50" height="50" rx="12" fill="#4FD1C5"/>
</mask>
<g mask="url(#mask0_215_2387)">
<mask id="mask1_215_2387" style="mask-type:luminance" maskUnits="userSpaceOnUse" x="-6" y="-7" width="78" height="78">
<path d="M32.581 70.1624C53.8198 70.1624 71.0372 52.9449 71.0372 31.7061C71.0372 10.4673 53.8198 -6.75012 32.581 -6.75012C11.3422 -6.75012 -5.87529 10.4673 -5.87529 31.7061C-5.87529 52.9449 11.3422 70.1624 32.581 70.1624Z" fill="white"/>
</mask>
<g mask="url(#mask1_215_2387)">
<path d="M32.581 70.1624C53.8198 70.1624 71.0372 52.9449 71.0372 31.7061C71.0372 10.4673 53.8198 -6.75012 32.581 -6.75012C11.3422 -6.75012 -5.87529 10.4673 -5.87529 31.7061C-5.87529 52.9449 11.3422 70.1624 32.581 70.1624Z" fill="#FCE3C3"/>
</g>
<mask id="mask2_215_2387" style="mask-type:luminance" maskUnits="userSpaceOnUse" x="-6" y="-7" width="78" height="78">
<path d="M32.581 70.1624C53.8198 70.1624 71.0372 52.9449 71.0372 31.7061C71.0372 10.4673 53.8198 -6.75012 32.581 -6.75012C11.3422 -6.75012 -5.87529 10.4673 -5.87529 31.7061C-5.87529 52.9449 11.3422 70.1624 32.581 70.1624Z" fill="white"/>
</mask>
<g mask="url(#mask2_215_2387)">
<path d="M59.8788 51.4123C59.8766 51.4065 59.8744 51.4007 59.8722 51.3948C58.6808 48.2496 56.5624 45.3508 54.2064 42.9806C51.6233 40.3821 49.4641 38.1272 48.6206 34.4124C47.9937 31.6514 48.0122 28.7907 47.9664 25.9594C47.8922 21.3824 47.465 16.4592 44.8663 12.5539C42.5863 9.12756 38.8954 6.80426 34.7346 6.74182C29.391 6.66157 24.3109 9.88599 21.6119 14.4296C18.7618 19.2277 18.4693 24.8773 16.4045 29.9749C15.2523 32.8194 13.324 35.3606 11.7011 37.9653C9.32214 41.7836 6.45996 45.5452 5.35896 49.9648C2.83579 60.1561 8.35722 71.1024 18.1028 74.9758C19.0212 75.3408 19.9659 75.6387 20.9276 75.8656C21.3673 75.9693 21.8101 76.0587 22.2553 76.1337C28.9872 77.2676 35.8322 76.3966 42.3716 74.5915C46.2257 73.5277 50.0369 72.1019 53.2937 69.7764C59.0581 65.6609 62.5048 58.3715 59.8788 51.4123Z" fill="#603813"/>
<path d="M105.55 80.262C104.455 80.0178 103.353 79.8085 102.25 79.6037C100.981 79.368 99.7081 79.1608 98.4456 78.8917C98.3597 78.8734 98.151 78.8069 98.1573 78.6905C98.1598 78.645 98.1999 78.6087 98.2437 78.5957C98.3692 78.5583 98.5335 78.6176 98.6534 78.65C99.5389 78.8894 100.41 79.0424 101.314 79.1866C102.1 79.3118 102.883 79.4539 103.663 79.6122C104.214 79.724 104.783 79.9101 105.341 79.9542C105.732 79.9851 106.155 79.8806 106.294 79.4645C106.701 78.2461 104.257 77.9272 103.537 77.7729C101.338 77.3016 99.157 76.7346 96.9531 76.2922C96.757 76.2529 96.5522 76.2384 96.3752 76.1368C96.34 76.1164 96.3033 76.0901 96.2933 76.0506C96.2797 75.9967 96.3206 75.9452 96.3608 75.9071C96.6594 75.6237 97.0894 75.5009 97.4589 75.3402C97.9734 75.1144 98.5463 74.8615 98.9704 74.4813C99.2831 74.1968 99.506 73.7173 99.2561 73.3262C99.0469 72.9987 98.6414 72.8221 98.2633 72.8041C97.7821 72.7814 97.3171 72.9609 96.8669 73.1326C95.8608 73.5164 94.845 73.8756 93.8212 74.2095C92.8765 74.5176 91.8623 74.5399 90.9254 74.8744C90.3041 75.0964 89.7072 75.3816 89.1383 75.7177C88.8983 75.6313 74.4775 68.638 67.9574 67.3436L56.676 51.9388C56.186 52.4901 55.6841 53.0317 55.1827 53.5741C53.8089 55.0604 52.4754 56.5834 51.0943 58.0631C50.6601 58.5282 50.2205 58.9878 49.7799 59.4464C49.6107 59.6746 49.4412 59.9025 49.2726 60.1312C53.2907 65.1019 60.0387 73.4429 62.0708 75.9155C62.1989 76.2376 62.3932 76.4836 62.6645 76.6255C69.6356 80.271 87.1311 80.7179 87.3968 80.8421C87.5878 80.9324 87.73 81.203 87.8707 81.363C88.0441 81.5607 88.229 81.7504 88.4209 81.9309C88.8054 82.2943 89.2184 82.6276 89.6537 82.928C90.4804 83.4986 91.3862 83.9464 92.3406 84.2589C92.9212 84.4491 93.5253 84.508 94.1283 84.583C95.4032 84.7415 96.6734 84.9397 97.9498 85.0854C99.2225 85.2308 100.504 85.215 101.782 85.1648C102.249 85.1465 102.865 85.127 103.132 84.6692C103.303 84.3753 103.233 84.0233 102.922 83.8614C102.616 83.7014 102.222 83.7306 101.883 83.7041C101.5 83.6743 101.116 83.6456 100.732 83.6179C100.078 83.5709 99.4239 83.5272 98.7694 83.4866C98.4584 83.4673 98.1001 83.5126 97.8059 83.3909C97.6305 83.3183 97.8208 83.1563 97.9225 83.1313C98.1298 83.0802 98.3785 83.1534 98.5867 83.1766C98.8453 83.2055 99.1042 83.2323 99.3631 83.2574C99.881 83.3078 100.399 83.3512 100.918 83.3895C101.93 83.4644 102.943 83.519 103.956 83.568C104.23 83.5813 104.508 83.5935 104.776 83.5383C105.273 83.4362 105.893 82.8659 105.487 82.3322C105.28 82.0607 104.891 82.0284 104.549 82.0161C103.418 81.9952 102.289 81.9156 101.164 81.7958C100.601 81.7359 100.039 81.6657 99.4783 81.5875C99.1985 81.5485 98.9193 81.5074 98.64 81.4646C98.5323 81.4482 98.0916 81.4494 98.0579 81.3162C98.0102 81.1278 98.3774 81.1557 98.4683 81.1667C99.2512 81.262 100.034 81.3576 100.817 81.4529C102.122 81.6119 103.426 81.7709 104.731 81.9299C105.358 82.0062 106.624 82.3267 106.9 81.5062C107.186 80.6517 106.166 80.3993 105.55 80.262Z" fill="#FFCFCA"/>
<path d="M63.2821 59.3906C60.3154 62.8162 57.8385 65.2639 54.8102 68.6326C54.4514 68.2413 54.094 67.8361 53.752 67.4418C52.4996 65.9971 51.4632 64.6816 51.4231 64.6292L51.4216 64.6276C51.4216 64.6276 50.4974 85.8842 50.3433 86.6543C50.0691 88.0222 52.9619 98.6689 52.3458 99.285C44.4824 107.148 21.3852 104.984 17.0724 96.5124C16.5734 95.5327 24.2954 84.4978 24.2954 84.4978C24.2954 84.4978 21.1204 74.3316 19.5462 68.4307C18.9086 66.0432 18.4603 64.3535 18.4588 64.3195C18.2893 64.8263 17.9966 66.1679 17.5346 67.7082C15.9943 67.246 5.8188 65.1205 4.74987 64.6275C8.34452 53.2346 12.9287 47.4877 15.029 45.8074C16.5145 44.619 26.3361 40.9204 37.2815 41.7429C43.4397 42.2051 50.7704 44.977 52.0164 46.1045C55.1358 48.927 60.0378 55.1658 63.2821 59.3906Z" fill="#FBB03B"/>
<path d="M39.9747 44.9579C39.3262 47.0358 37.1406 47.5224 35.2106 47.5009C33.0803 47.4778 30.2647 46.9865 29.5052 44.6543C28.983 43.0462 29.3588 41.1993 29.3666 39.542C29.3727 38.4406 29.3372 37.3378 29.248 36.2395C29.194 35.5649 29.1202 34.8916 29.0232 34.2216C28.9446 33.681 28.8552 33.1403 28.7551 32.6028C28.6874 32.2409 28.6149 31.8803 28.5364 31.5215C28.4824 31.2703 28.1806 30.5942 28.4717 30.4201C28.7413 30.26 29.2943 30.7359 29.5191 30.8715C32.8261 32.8539 36.2796 34.5944 39.8424 36.0715C39.9825 36.1285 40.1288 36.1932 40.2121 36.3196C40.2906 36.4397 40.2937 36.5922 40.2937 36.737C40.2953 37.8938 40.2952 39.0521 40.2967 40.209C40.2983 40.6588 40.3107 41.1101 40.3168 41.5599C40.3383 42.7043 40.3214 43.8474 39.9747 44.9579Z" fill="#FFCFCA"/>
<path d="M40.3168 41.5598C37.2238 40.7081 34.251 39.4388 31.537 37.7414C30.7823 37.27 30.0043 36.771 29.2481 36.2396C29.1942 35.565 29.1204 34.8917 29.0233 34.2217C28.9447 33.6811 28.8553 33.1404 28.7552 32.6029C28.6875 32.241 28.6151 31.8804 28.5365 31.5216C28.4825 31.2705 28.1807 30.5943 28.4719 30.4202C28.7415 30.2601 29.2944 30.736 29.5192 30.8716C32.8263 32.854 36.2798 34.5945 39.8425 36.0716C39.9827 36.1287 40.129 36.1933 40.2123 36.3197C40.2908 36.4398 40.2939 36.5924 40.2939 36.7371C40.2954 37.8939 40.2954 39.0523 40.2969 40.2091C40.2983 40.6589 40.3105 41.11 40.3168 41.5598Z" fill="#F9BFBB"/>
<path d="M45.4558 32.3976C44.7934 34.0165 43.874 35.4875 42.369 36.4348C41.0336 37.2743 39.4254 37.6856 37.8512 37.6162C36.109 37.5407 34.4347 36.9338 32.953 36.0004C32.2152 35.5352 31.5235 34.99 30.8983 34.3877C29.8046 33.3356 28.8851 32.1174 28.0933 30.828C26.8072 28.7285 25.7689 26.3365 25.2545 23.8657C25.1944 23.5807 25.142 23.2943 25.0959 23.0077C24.6955 20.4832 24.8648 17.9047 25.8875 15.4986C26.348 14.4049 26.9935 13.393 27.7884 12.5103C31.1339 8.78437 36.8887 8.14047 40.9782 11.0347C43.11 12.5443 44.6996 14.8131 45.5483 17.2669C45.8179 18.0448 46.0489 18.8442 46.2384 19.6543C46.2708 19.7945 46.303 19.9362 46.3324 20.078C47.2072 24.1584 47.0331 28.5453 45.4558 32.3976Z" fill="#FFCFCA"/>
<path d="M36.9899 24.911C36.7706 24.9223 36.4681 24.5737 36.3845 24.0555C36.3404 23.7825 36.367 23.5093 36.4576 23.3062C36.4888 23.236 36.5762 23.0702 36.7106 23.0485C36.7175 23.0473 36.7243 23.0466 36.7313 23.0463C36.9507 23.0349 37.253 23.3836 37.3367 23.9019C37.3808 24.1751 37.3541 24.4481 37.2635 24.6512C37.2323 24.7214 37.1449 24.8872 37.0106 24.9088C37.0038 24.9098 36.9968 24.9106 36.9899 24.911Z" fill="#1F3C49"/>
<path d="M43.5636 24.2733C43.3783 24.2828 43.0678 23.973 42.983 23.4466C42.9402 23.182 42.966 22.9176 43.0537 22.7211C43.1168 22.5793 43.2042 22.4895 43.2933 22.4753C43.2998 22.4743 43.3061 22.4736 43.3125 22.4732C43.4978 22.4637 43.8083 22.7737 43.8931 23.3C43.9357 23.5647 43.9101 23.8292 43.8223 24.0256C43.7591 24.1674 43.6719 24.257 43.5828 24.2714C43.5763 24.2723 43.5701 24.2729 43.5636 24.2733Z" fill="#1F3C49"/>
<path d="M40.2647 25.4669C40.4364 25.278 40.7271 25.1973 41.0012 25.2473C41.2804 25.2936 41.5376 25.493 41.6667 25.7482C41.8026 26 41.8189 26.3251 41.6972 26.5808C41.5815 26.8346 41.3487 27.0266 41.0952 27.0591C41.2722 26.8814 41.3715 26.6812 41.4093 26.483C41.4471 26.286 41.4114 26.0972 41.324 25.927C41.2349 25.7577 41.1002 25.6203 40.9169 25.5385C40.7328 25.4558 40.5114 25.4229 40.2647 25.4669Z" fill="#1F3C49"/>
<path d="M36.9901 21.1118C36.9694 21.1141 36.9492 21.1124 36.929 21.1063C36.6847 21.0319 36.4158 21.0079 36.1526 21.0373C36.117 21.0412 36.0813 21.0463 36.0459 21.0523C35.8089 21.0916 35.5776 21.175 35.3772 21.2934C35.3609 21.3031 35.3438 21.3094 35.3253 21.3124C35.3002 21.3155 35.2834 21.3144 35.2667 21.3109C35.2264 21.302 35.1894 21.2754 35.1682 21.2392C35.1256 21.1669 35.1499 21.073 35.2223 21.0302C35.4527 20.8943 35.7196 20.7984 35.9938 20.7527C36.0347 20.7459 36.0759 20.7401 36.1173 20.7355C36.4219 20.7016 36.7331 20.7287 37.0173 20.8142C37.0975 20.8383 37.1435 20.9239 37.1193 21.0045C37.1023 21.0604 37.0559 21.1015 36.9984 21.111L36.9901 21.1118Z" fill="#1F3C49"/>
<path d="M42.1704 20.1938C42.1613 20.1915 42.1512 20.1879 42.1417 20.1833C42.1083 20.1673 42.0824 20.14 42.068 20.1062C42.0349 20.0291 42.0707 19.9388 42.1479 19.9057C42.5281 19.7421 42.9667 19.6975 43.3827 19.7795C43.4202 19.7869 43.4576 19.7953 43.4947 19.8048C43.5963 19.8306 43.6958 19.8642 43.7901 19.9046C43.8656 19.9379 43.9033 20.0286 43.8705 20.105C43.8415 20.1731 43.7737 20.2093 43.7015 20.195C43.6851 20.1911 43.6774 20.1884 43.67 20.1853C43.5901 20.151 43.5052 20.1223 43.418 20.1001C43.3871 20.0923 43.3563 20.0853 43.3252 20.0792C42.9684 20.0087 42.5931 20.0468 42.2685 20.1862C42.2405 20.1983 42.2084 20.2017 42.1781 20.1955L42.1704 20.1938Z" fill="#1F3C49"/>
<path d="M36.8632 23.3869C36.5429 23.3205 36.4392 23.819 36.7602 23.8854C37.0805 23.9518 37.1841 23.4533 36.8632 23.3869Z" fill="white"/>
<path d="M43.5402 22.7434C43.2197 22.677 43.1162 23.1754 43.4372 23.2418C43.7575 23.3082 43.8612 22.8099 43.5402 22.7434Z" fill="white"/>
<path d="M44.2529 27.9918C44.3429 28.8798 44.183 29.7253 43.8374 30.445C43.2841 31.6005 42.2517 32.4229 41.0022 32.5495C39.7221 32.6791 38.5196 32.0481 37.7496 30.9836C37.2947 30.3614 36.9896 29.5899 36.9031 28.7366C36.9001 28.7061 36.9011 28.675 36.8977 28.6423L44.2394 27.8984C44.2426 27.931 44.2499 27.9612 44.2529 27.9918Z" fill="#D55454"/>
<path d="M43.9413 27.9283C43.2068 28.8834 42.0559 29.555 40.7125 29.6911C39.369 29.8271 38.1068 29.4002 37.1957 28.6118L43.9413 27.9283Z" fill="white"/>
<path d="M43.8374 30.4451C43.2841 31.6005 42.2517 32.4229 41.0022 32.5495C39.722 32.6791 38.5195 32.0481 37.7496 30.9836C38.9753 30.581 40.2599 30.354 41.5494 30.3161C42.3142 30.2942 43.0798 30.3383 43.8374 30.4451Z" fill="#F37C7C"/>
<path d="M36.5791 26.9303C36.6235 27.7657 35.7399 28.4919 34.6055 28.5523C33.471 28.6126 32.5155 27.9843 32.471 27.1486C32.4266 26.313 33.3102 25.587 34.4446 25.5266C35.579 25.4663 36.5346 26.0948 36.5791 26.9303Z" fill="#F9BFBB"/>
<path d="M46.1448 25.5717C46.1748 26.1359 45.5781 26.6264 44.812 26.6671C44.046 26.7078 43.4006 26.2835 43.3707 25.7192C43.3407 25.155 43.9374 24.6645 44.7035 24.6238C45.4695 24.5832 46.1149 25.0076 46.1448 25.5717Z" fill="#F9BFBB"/>
<path d="M46.4686 20.0386C44.4548 19.452 42.4206 18.1449 40.7765 16.2137C40.5597 15.961 40.3569 15.702 40.165 15.44C38.9155 18.0779 36.362 20.5035 32.963 21.9416C30.2206 23.1022 27.4003 23.4188 24.9621 23.0055C24.5566 20.4489 24.7282 17.8374 25.764 15.401C26.2304 14.2934 26.884 13.2685 27.6889 12.3747C31.0771 8.60124 36.9047 7.94936 41.0462 10.8804C43.2051 12.4092 44.815 14.7068 45.6745 17.1918C45.9475 17.9796 46.1815 18.7891 46.3734 19.6097C46.4062 19.7515 46.4391 19.895 46.4686 20.0386Z" fill="#603813"/>
<path d="M29.8613 29.8109C28.4896 30.7692 26.5991 30.936 25.0883 30.2123C23.8119 29.602 22.856 28.3745 22.546 26.9976C22.4903 26.7477 22.4557 26.4942 22.443 26.2347C22.4221 25.7836 22.4718 25.326 22.6254 24.9016C23.0102 23.8554 24.074 23.116 25.1854 23.0437C26.2991 22.972 27.4154 23.5351 28.0832 24.4279L28.7668 26.4979L29.8613 29.8109Z" fill="#FFCFCA"/>
<path d="M40.2842 41.7422C40.1172 43.1951 39.9018 44.7333 38.7502 45.7732C37.7405 46.685 36.3299 47.0777 34.9833 47.067C33.5674 47.0558 32.158 46.5989 31.0136 45.7749C29.7186 44.8426 29.3265 43.2767 29.2839 41.758C29.2641 41.0474 28.1429 41.0445 28.1629 41.758C28.2121 43.5154 28.6852 45.3652 30.1321 46.4947C31.5027 47.5646 33.2366 48.1571 34.9833 48.1734C36.6249 48.1888 38.3232 47.6671 39.5429 46.5556C40.92 45.3007 41.2043 43.4922 41.4052 41.7422C41.4865 41.0359 40.3648 41.0416 40.2842 41.7422Z" fill="#F15A24"/>
<path d="M53.7522 67.4418C52.4998 65.997 51.4633 64.6816 51.4233 64.6292L51.4218 64.6276C51.4218 64.6276 51.5758 59.5446 51.4218 57.4173C51.3217 56.0263 50.2249 51.3746 50.1912 51.2297C50.2697 51.3714 52.7881 55.9293 53.4242 58.9284C54.0525 61.892 53.9478 65.1991 53.7522 67.4418Z" fill="#F7A037"/>
</g>
</g>
<defs>
<filter id="filter0_d_215_2387" x="0.5" y="0" width="61" height="61" filterUnits="userSpaceOnUse" color-interpolation-filters="sRGB">
<feFlood flood-opacity="0" result="BackgroundImageFix"/>
<feColorMatrix in="SourceAlpha" type="matrix" values="0 0 0 0 0 0 0 0 0 0 0 0 0 0 0 0 0 0 127 0" result="hardAlpha"/>
<feOffset dy="3.5"/>
<feGaussianBlur stdDeviation="2.75"/>
<feColorMatrix type="matrix" values="0 0 0 0 0 0 0 0 0 0 0 0 0 0 0 0 0 0 0.02 0"/>
<feBlend mode="normal" in2="BackgroundImageFix" result="effect1_dropShadow_215_2387"/>
<feBlend mode="normal" in="SourceGraphic" in2="effect1_dropShadow_215_2387" result="shape"/>
</filter>
</defs>
</svg>
