<svg width="62" height="61" viewBox="0 0 62 61" fill="none" xmlns="http://www.w3.org/2000/svg">
<g filter="url(#filter0_d_215_2546)">
<rect x="6" y="2" width="50" height="50" rx="12" fill="#4FD1C5"/>
</g>
<mask id="mask0_215_2546" style="mask-type:alpha" maskUnits="userSpaceOnUse" x="6" y="2" width="50" height="50">
<rect x="6" y="2" width="50" height="50" rx="12" fill="#4FD1C5"/>
</mask>
<g mask="url(#mask0_215_2546)">
<mask id="mask1_215_2546" style="mask-type:luminance" maskUnits="userSpaceOnUse" x="-8" y="-4" width="78" height="78">
<path d="M31.331 73.9124C52.5698 73.9124 69.7872 56.6949 69.7872 35.4561C69.7872 14.2173 52.5698 -3.00012 31.331 -3.00012C10.0922 -3.00012 -7.12525 14.2173 -7.12525 35.4561C-7.12525 56.6949 10.0922 73.9124 31.331 73.9124Z" fill="white"/>
</mask>
<g mask="url(#mask1_215_2546)">
<path d="M31.331 73.9124C52.5698 73.9124 69.7872 56.6949 69.7872 35.4561C69.7872 14.2173 52.5698 -3.00012 31.331 -3.00012C10.0922 -3.00012 -7.12525 14.2173 -7.12525 35.4561C-7.12525 56.6949 10.0922 73.9124 31.331 73.9124Z" fill="#FCE3C3"/>
</g>
<mask id="mask2_215_2546" style="mask-type:luminance" maskUnits="userSpaceOnUse" x="-8" y="-4" width="78" height="78">
<path d="M31.331 73.9124C52.5698 73.9124 69.7872 56.6949 69.7872 35.4561C69.7872 14.2173 52.5698 -3.00012 31.331 -3.00012C10.0922 -3.00012 -7.12525 14.2173 -7.12525 35.4561C-7.12525 56.6949 10.0922 73.9124 31.331 73.9124Z" fill="white"/>
</mask>
<g mask="url(#mask2_215_2546)">
<path d="M15.9346 51.6189C7.47105 51.6177 -0.634299 78.3436 -0.841637 78.6894C-1.01759 78.9875 -17.8544 103.776 -17.9041 103.835C-17.9041 103.835 -23.6186 109.585 -25.015 111.314C-25.9563 112.486 -26.9404 113.699 -27.5421 115.082C-28.1804 116.548 -28.5708 118.095 -28.9883 119.634C-29.0537 119.874 -29.1205 120.121 -29.0913 120.37C-29.037 120.816 -28.5479 121.204 -28.1001 121.001C-27.1274 120.565 -26.7923 119.29 -26.5076 118.363C-26.2436 117.501 -26.0266 116.616 -25.6195 115.806C-25.2205 115.009 -24.6171 114.425 -23.9038 113.895C-23.3899 113.512 -22.8944 113.113 -22.3686 112.741C-22.1688 112.598 -21.9585 112.456 -21.7381 112.343C-21.4395 112.19 -21.1211 112.088 -20.7854 112.113C-20.5052 112.135 -20.0976 112.27 -19.9325 112.517C-19.7542 112.786 -19.95 113.103 -20.0628 113.353C-20.1992 113.649 -20.396 113.913 -20.6003 114.168C-20.9483 114.601 -21.3535 115.028 -21.5642 115.546C-21.6005 115.633 -21.6313 115.724 -21.656 115.817C-21.9122 116.809 -21.1616 118.238 -20.0535 117.341C-19.8153 117.149 -19.6298 116.901 -19.4432 116.66C-18.55 115.511 -17.4086 114.546 -16.7378 113.249C-16.3099 112.422 -15.9754 111.553 -15.6441 110.687C-15.0238 109.068 -14.7542 108.093 -14.6359 107.317L-14.635 107.313L-14.6155 107.283C-14.484 107.178 0.845569 93.4365 9.88038 81.1204C11.9969 78.2353 17.1847 66.8825 19.6964 58.6433C20.2147 56.9447 17.5127 53.2586 15.9346 51.6189Z" fill="#FFCFCA"/>
<path d="M28.1367 32.5644C30.6952 33.8718 33.3019 35.0812 35.9242 36.2562C36.7141 36.6093 37.5114 36.9636 38.3578 37.1409L38.5332 41.9287L38.684 46.0315C38.5284 46.134 38.3642 46.2176 38.1947 46.2897C37.4193 48.2574 35.5029 49.6507 33.2596 49.6507C30.8452 49.6507 28.809 48.0368 28.1675 45.8296C28.1188 45.8148 28.0701 45.7999 28.0212 45.7853C28.0205 45.5781 28.0195 45.3711 28.0187 45.1639C27.9776 44.8977 27.9559 44.6249 27.9559 44.347C27.9559 44.0855 27.9756 43.8288 28.0122 43.5774C28.0107 43.2197 28.009 42.862 28.0078 42.5045C28.0027 41.137 27.9956 39.7667 27.8537 38.4061C27.8095 37.9892 27.755 37.5732 27.688 37.1601C27.5283 36.1295 27.3103 35.1091 27.0926 34.0863C26.9134 33.2475 26.7348 32.4062 26.5556 31.5674C27.0573 32.0228 27.5295 32.254 28.1367 32.5644Z" fill="#FFCFCA"/>
<path d="M43.6432 24.3234C43.3719 27.6505 41.919 30.8853 39.5431 33.2301C38.4563 34.3026 37.1772 35.1934 35.7542 35.7468C34.1922 36.3541 32.4884 36.5435 30.8149 36.4562C29.8269 36.4048 28.8309 36.2555 27.9237 35.8609C26.8363 35.388 25.9275 34.587 25.0809 33.7568C23.6336 32.338 22.2993 30.7826 21.3094 29.014C20.3195 27.2453 19.6836 25.2493 19.6897 23.2226C19.6918 22.5348 19.77 21.8362 20.036 21.202C20.3903 20.3572 21.0515 19.6822 21.7287 19.0651C23.9656 17.0269 26.5913 15.3558 29.5074 14.547C32.5236 13.7105 35.7106 13.8233 38.8385 13.9424C39.63 13.9726 40.3526 14.1274 40.9884 14.6245C41.5084 15.031 41.7936 15.718 42.0778 16.2966C42.8617 17.8922 43.3785 19.6203 43.5869 21.3861C43.7021 22.3603 43.7229 23.3456 43.6432 24.3234Z" fill="#534741"/>
<path d="M38.5332 41.9285C35.6049 41.2751 32.7725 40.2058 30.1823 38.7032C29.3586 38.2261 28.5036 37.7144 27.6878 37.1597C27.5282 36.1293 27.3102 35.1087 27.0925 34.086C26.9133 33.2471 26.7346 32.4059 26.5555 31.567C27.0572 32.0228 27.5294 32.254 28.1366 32.5644C30.6951 33.8718 33.3018 35.0812 35.924 36.2562C36.714 36.6093 37.5113 36.9636 38.3576 37.1409L38.5332 41.9285Z" fill="#F9BFBB"/>
<path d="M43.293 22.7575C43.1095 22.0176 42.8854 21.2889 42.6262 20.5795C41.8095 18.3412 40.2974 16.2804 38.2822 14.9184C34.4132 12.306 29.0067 12.946 25.8866 16.3849C25.1461 17.1996 24.5467 18.1318 24.1215 19.1358C23.0712 21.5975 23.0166 24.2464 23.5889 26.7967C24.091 29.0525 25.0856 31.2319 26.3113 33.1416C27.066 34.3149 27.9398 35.4208 28.9765 36.3735C29.5693 36.9186 30.223 37.4117 30.9202 37.8304C32.321 38.6715 33.901 39.2122 35.54 39.2664C37.0209 39.3149 38.5298 38.9248 39.7794 38.1448C41.1885 37.2649 42.0418 35.9099 42.653 34.4238C44.1573 30.7613 44.2463 26.5909 43.293 22.7575Z" fill="#FFCFCA"/>
<path d="M26.9907 32.3594C25.5833 33.064 23.8012 32.9614 22.4939 32.0818C21.3893 31.3397 20.667 30.0668 20.5664 28.7432C20.5488 28.5029 20.5512 28.2623 20.5747 28.0192C20.6168 27.5965 20.7256 27.1773 20.9263 26.8035C21.4272 25.8824 22.5181 25.3394 23.5621 25.4237C24.6085 25.5087 25.5704 26.1852 26.0702 27.1074L26.424 29.1272L26.9907 32.3594Z" fill="#FFCFCA"/>
<path d="M31.4048 19.9669C33.7678 19.5214 36.1369 18.994 38.3744 18.1571C40.1926 17.4768 42.206 16.1689 42.6928 14.2024C43.3018 11.742 41.2339 9.85354 39.1746 8.88914C35.1535 7.00596 30.1851 7.33884 26.5146 9.87576C24.2863 11.4159 22.6101 13.7073 21.8406 16.2651C21.3993 17.7324 21.2154 19.951 22.9435 20.6324C24.9509 21.4239 27.4332 20.6814 29.4697 20.3192C30.1123 20.2047 30.7582 20.0888 31.4048 19.9669Z" fill="#534741"/>
<path d="M17.8317 20.4829C18.0375 18.9601 18.7102 17.5544 19.9507 16.7649C21.7511 15.6191 24.4753 15.9413 25.569 17.9008C26.2835 19.181 26.2954 20.8124 26.1013 22.2278C26.0103 22.8903 25.8352 23.5521 25.4809 24.1259C25.2439 24.5098 24.4402 25.5045 23.903 25.4261C23.7237 25.3999 23.5367 25.3757 23.3833 25.3635C23.3523 25.3609 23.3214 25.3594 23.2903 25.3587C22.7409 25.3604 22.2289 25.499 21.7539 25.7742C21.3992 25.9654 21.1146 26.2267 20.8998 26.5583C20.2245 27.296 19.2084 26.0223 18.8505 25.4841C17.9847 24.182 17.5924 22.2534 17.8317 20.4829Z" fill="#534741"/>
<path d="M52.9961 75.7904C52.9751 75.7994 52.954 75.8099 52.9314 75.8189C53.5801 86.6461 53.9583 108.236 54.7871 117.352C42.1509 116.573 23.4466 117.281 12.337 115.93C12.0367 110.375 12.334 97.239 13.8639 79.8573C14.0125 78.1504 14.1866 76.3984 14.3848 74.6058C14.3907 74.5503 14.3968 74.4947 14.4028 74.4376C14.3953 74.4332 14.3877 74.4271 14.3802 74.4225C12.7334 73.2981 10.8972 72.2862 9.0566 71.2924C6.49389 69.9083 3.92066 68.5587 1.82794 66.9882C1.64486 66.8501 4.25846 62.3628 4.37265 62.1272C7.93964 54.6988 14.0979 46.8261 22.5772 45.008C23.0757 44.9015 27.9517 44.346 27.9608 44.1252C27.9578 44.1989 27.9562 44.2724 27.9562 44.346C27.9562 47.2765 30.3297 49.6501 33.2601 49.6501C36.1892 49.6501 38.5627 47.2765 38.5627 44.346C38.5627 44.2754 38.5612 44.2048 38.5581 44.1342C43.0049 45.0381 47.2475 47.0468 50.6915 49.9741C53.8202 52.6344 56.3093 56.0183 57.9502 59.7774C58.2564 60.4741 58.5387 61.1796 58.8044 61.8927C59.9063 64.8546 60.7621 67.8992 61.6853 70.9183C60.5758 71.738 59.3523 72.5277 58.0613 73.2723C56.4506 74.2006 54.733 75.0547 52.9961 75.7904Z" fill="#397272"/>
<path d="M32.7847 22.2089C32.9939 22.1873 33.2049 22.2043 33.4144 22.2213C33.7855 22.2513 34.1567 22.2814 34.5278 22.3116C34.651 22.3216 34.8044 22.3154 34.8583 22.2041C34.885 22.1491 34.8766 22.0825 34.8528 22.0262C34.7627 21.812 34.4994 21.7393 34.2692 21.71C33.6977 21.6374 33.0941 21.6779 32.5591 21.9036C32.4548 21.9475 31.8571 22.2208 31.8992 22.3609C31.9367 22.4859 32.6646 22.2213 32.7847 22.2089Z" fill="#211A17"/>
<path d="M40.8786 21.9567C40.6683 21.9506 40.4593 21.983 40.2515 22.0153C39.8836 22.0725 39.5156 22.1299 39.1478 22.1871C39.0256 22.2061 38.8722 22.2112 38.8103 22.1043C38.7797 22.0513 38.7831 21.9843 38.8026 21.9264C38.8768 21.7063 39.134 21.6143 39.3615 21.5683C39.926 21.454 40.5311 21.4498 41.0813 21.6357C41.1886 21.6719 41.8046 21.9005 41.7731 22.0433C41.7446 22.1707 40.9992 21.9602 40.8786 21.9567Z" fill="#211A17"/>
<path d="M40.2194 31.7163C39.8028 32.7997 39.0383 33.5452 38.1093 33.6227C37.2148 33.6962 36.3673 33.1316 35.7804 32.1955C35.3781 31.5528 35.0982 30.7351 35.0093 29.8276L35.1845 29.8133L40.3534 29.3873L40.5451 29.371C40.6042 30.2298 40.4798 31.0387 40.2194 31.7163Z" fill="#CE7872"/>
<path d="M40.3534 29.3872C39.7787 30.2561 38.9012 30.8413 37.8779 30.9261C36.8546 31.011 35.8938 30.5758 35.1844 29.8131L40.3534 29.3872Z" fill="white"/>
<path d="M40.2194 31.7162C39.8029 32.7995 39.0383 33.5451 38.1094 33.6226C37.2149 33.6961 36.3673 33.1314 35.7805 32.1953C36.0322 32.0286 36.2968 31.8825 36.5723 31.76C37.3682 31.4055 38.2633 31.251 39.1235 31.3887C39.5054 31.4493 39.8694 31.5645 40.2194 31.7162Z" fill="#EA8C8B"/>
<path d="M34.8327 25.555C34.8539 26.2595 34.468 26.8426 33.9707 26.8576C33.4734 26.8725 33.0532 26.3136 33.032 25.6091C33.0108 24.9047 33.3966 24.3215 33.8939 24.3066C34.391 24.2916 34.8115 24.8505 34.8327 25.555Z" fill="#211A17"/>
<path d="M34.181 25.1462C33.8906 25.1549 33.9037 25.6056 34.1946 25.5968C34.4852 25.5881 34.4721 25.1376 34.181 25.1462Z" fill="white"/>
<path d="M39.6345 25.4105C39.6557 26.115 40.076 26.6739 40.5733 26.659C41.0706 26.644 41.4565 26.0609 41.4352 25.3564C41.414 24.6519 40.9938 24.093 40.4965 24.108C39.9992 24.1229 39.6133 24.706 39.6345 25.4105Z" fill="#211A17"/>
<path d="M40.8019 24.8135C40.5115 24.8221 40.5246 25.2728 40.8156 25.264C41.1061 25.2552 41.0929 24.8047 40.8019 24.8135Z" fill="white"/>
<path d="M38.0966 26.9943C37.8031 26.7659 37.3457 26.7729 37.0696 27.0221L37.8722 28.4095C38.0961 28.3951 38.2794 28.2093 38.3617 28.0006C38.4981 27.6546 38.3902 27.2227 38.0966 26.9943Z" fill="#CE7872"/>
<path d="M31.0075 27.0716C29.684 27.1634 28.6716 28.1095 28.7462 29.1849C28.8207 30.2603 29.9542 31.0574 31.2776 30.9656C32.601 30.8738 33.6134 29.9277 33.5388 28.8523C33.4641 27.7771 32.3309 26.9799 31.0075 27.0716Z" fill="#F9BFBB"/>
<path d="M43.7467 27.7243C43.7048 27.121 43.0688 26.6736 42.3262 26.725C41.5835 26.7765 41.0155 27.3075 41.0572 27.9108C41.0991 28.5142 41.7351 28.9616 42.4777 28.91C43.2205 28.8588 43.7886 28.3279 43.7467 27.7243Z" fill="#F9BFBB"/>
</g>
</g>
<defs>
<filter id="filter0_d_215_2546" x="0.5" y="0" width="61" height="61" filterUnits="userSpaceOnUse" color-interpolation-filters="sRGB">
<feFlood flood-opacity="0" result="BackgroundImageFix"/>
<feColorMatrix in="SourceAlpha" type="matrix" values="0 0 0 0 0 0 0 0 0 0 0 0 0 0 0 0 0 0 127 0" result="hardAlpha"/>
<feOffset dy="3.5"/>
<feGaussianBlur stdDeviation="2.75"/>
<feColorMatrix type="matrix" values="0 0 0 0 0 0 0 0 0 0 0 0 0 0 0 0 0 0 0.02 0"/>
<feBlend mode="normal" in2="BackgroundImageFix" result="effect1_dropShadow_215_2546"/>
<feBlend mode="normal" in="SourceGraphic" in2="effect1_dropShadow_215_2546" result="shape"/>
</filter>
</defs>
</svg>
