<svg width="62" height="61" viewBox="0 0 62 61" fill="none" xmlns="http://www.w3.org/2000/svg">
<g filter="url(#filter0_d_215_2612)">
<rect x="6" y="2" width="50" height="50" rx="12" fill="#4FD1C5"/>
</g>
<mask id="mask0_215_2612" style="mask-type:alpha" maskUnits="userSpaceOnUse" x="6" y="2" width="50" height="50">
<rect x="6" y="2" width="50" height="50" rx="12" fill="#4FD1C5"/>
</mask>
<g mask="url(#mask0_215_2612)">
<mask id="mask1_215_2612" style="mask-type:luminance" maskUnits="userSpaceOnUse" x="-5" y="-7" width="78" height="78">
<path d="M33.831 70.1625C55.0698 70.1625 72.2872 52.9451 72.2872 31.7063C72.2872 10.4675 55.0698 -6.75 33.831 -6.75C12.5922 -6.75 -4.62525 10.4675 -4.62525 31.7063C-4.62525 52.9451 12.5922 70.1625 33.831 70.1625Z" fill="white"/>
</mask>
<g mask="url(#mask1_215_2612)">
<path d="M33.831 70.1625C55.0698 70.1625 72.2872 52.9451 72.2872 31.7063C72.2872 10.4675 55.0698 -6.75 33.831 -6.75C12.5922 -6.75 -4.62525 10.4675 -4.62525 31.7063C-4.62525 52.9451 12.5922 70.1625 33.831 70.1625Z" fill="#FCE3C3"/>
</g>
<mask id="mask2_215_2612" style="mask-type:luminance" maskUnits="userSpaceOnUse" x="-5" y="-7" width="78" height="78">
<path d="M33.831 70.1625C55.0698 70.1625 72.2872 52.9451 72.2872 31.7063C72.2872 10.4675 55.0698 -6.75 33.831 -6.75C12.5922 -6.75 -4.62525 10.4675 -4.62525 31.7063C-4.62525 52.9451 12.5922 70.1625 33.831 70.1625Z" fill="white"/>
</mask>
<g mask="url(#mask2_215_2612)">
<path d="M38.2817 27.0175C42.2214 26.4039 44.7833 21.8495 44.0038 16.845C43.2243 11.8406 39.3987 8.28106 35.459 8.89468C31.5194 9.5083 28.9575 14.0627 29.737 19.0672C30.5164 24.0716 34.3421 27.6311 38.2817 27.0175Z" fill="#603813"/>
<path d="M24.4085 39.662L38.8474 40.2474L34.721 48.7927L25.7744 48.436L24.4085 39.662Z" fill="black"/>
<path d="M4.19826 126.867C8.75172 130.303 58.5562 129.862 58.5223 127.418C58.4397 121.461 57.5209 115.025 56.6668 108.727C56.1829 105.167 55.7202 101.651 55.4421 98.2899C54.7845 90.3724 52.5621 65.4272 52.2491 61.0153C52.047 58.1385 51.5426 51.6123 51.483 50.8357C51.1174 50.5783 50.7439 50.3326 50.3644 50.0966C50.3532 50.0903 50.3421 50.0839 50.3294 50.0759C50.05 49.9103 49.7294 49.7225 49.3835 49.5236C49.3803 49.5204 49.3787 49.5187 49.3755 49.5189C47.8914 48.6546 45.9429 47.5539 44.6544 46.9426C41.4325 45.413 38.1212 44.4778 34.6379 43.9752C28.8404 43.1413 23.0937 44.1483 18.8734 45.3263C15.0859 46.3827 12.5252 47.5785 12.2563 47.7061C12.2407 47.7144 12.2329 47.7178 12.2329 47.7178C12.2329 47.7178 14.6466 48.7518 15.2936 52.7274C18.047 69.6376 9.73802 83.0978 9.73802 83.0978C9.73802 83.0978 7.63563 97.8183 6.41875 105.325C5.64556 110.091 3.56183 126.387 4.19826 126.867Z" fill="#ACDDD9"/>
<path d="M24.167 31.6803C24.3251 32.5553 24.4799 33.4318 24.6363 34.3066C24.6467 34.3589 24.6551 34.4127 24.6638 34.4648C24.6682 34.4892 24.673 34.5118 24.6774 34.5362C24.8849 35.6964 25.091 36.8546 25.233 38.0204C25.2923 38.4877 25.3389 38.9588 25.372 39.4304C25.41 39.957 25.4305 40.4872 25.436 41.0159C25.4511 42.0277 25.4234 43.0403 25.3924 44.0508C25.3749 44.6223 25.3664 45.1927 25.3625 45.7635C25.3579 46.4245 25.0769 47.138 25.346 47.7797C25.6866 48.5912 26.4652 49.012 27.1512 49.4883C27.8984 50.007 28.7118 50.4323 29.5636 50.7511C31.2346 51.3764 33.1202 51.6098 34.8491 51.0789C38.1548 50.0638 37.2787 46.4298 37.2673 43.7979L37.2641 43.0695L37.2588 41.1425L37.2485 38.3998C36.3034 38.1683 35.4184 37.7393 34.5417 37.3127C31.6332 35.89 28.7435 34.4315 25.9105 32.8622C25.8342 32.8207 25.7612 32.7794 25.69 32.7401C25.1207 32.4236 24.6546 32.153 24.167 31.6803Z" fill="#FFCFCA"/>
<path d="M37.2674 43.7986C33.9941 42.9528 30.8446 41.6424 27.9842 39.8529C27.0744 39.2847 26.1307 38.6762 25.2328 38.0209C25.0916 36.8545 24.8844 35.6971 24.6778 34.5371C24.5076 33.5857 24.3379 32.6317 24.1678 31.6802C24.7156 32.2121 25.2387 32.4903 25.911 32.8628C28.7429 34.4312 31.6331 35.8911 34.5421 37.3127C35.4186 37.74 36.3031 38.1689 37.2495 38.4003L37.2674 43.7986Z" fill="#F9BFBB"/>
<path d="M25.9052 32.3958C24.4122 33.4386 22.355 33.6203 20.7109 32.8327C19.3218 32.1684 18.2814 30.8326 17.944 29.3342C17.8835 29.0622 17.8458 28.7863 17.8321 28.504C17.8093 28.013 17.8635 27.515 18.0304 27.0533C18.4492 25.9147 19.607 25.1101 20.8164 25.0314C22.0284 24.9531 23.2432 25.566 23.9701 26.5379L24.7139 28.7906L25.9052 32.3958Z" fill="#FFCFCA"/>
<path d="M26.3597 135.465C24.7988 137.807 8.68596 130.849 3.33573 128.636C-0.716859 126.96 0.754356 124.552 1.18939 121.417C2.46939 112.178 4.02052 104.223 5.54637 95.7178C6.12783 92.473 6.70726 89.1481 7.26734 85.6437C7.29076 85.4994 7.31214 85.357 7.33555 85.2126C6.65263 87.4662 5.41165 92.0984 4.89653 93.7101C1.96971 102.881 -2.71304 124.539 -7.59108 125.319C-8.43196 125.454 -17.7118 122.189 -18.1275 121.027C-21.0543 112.832 -11.9813 82.7913 -10.5179 79.0761C-7.98132 72.6373 0.0320684 56.062 2.16483 53.3206C6.26238 48.0525 19.5558 44.9579 20.2132 44.7744C22.1293 44.2301 24.0629 43.7403 26.0082 43.3071C27.9339 47.8767 28.4082 52.3723 28.8999 57.305C31.5206 83.6282 27.587 133.623 26.3597 135.465Z" fill="#C15252"/>
<path d="M30.6523 49.0277L30.5098 49.7712L30.3675 50.5282L30.1294 51.775L29.9889 52.5203L29.5967 54.5769L29.4601 55.2968L28.9606 57.9232L20.8964 44.54L21.4564 43.7614L21.8407 43.227L22.5158 42.2904L22.8982 41.7596L23.4739 40.9615L23.8504 40.4367L24.4085 39.662L30.6523 49.0277Z" fill="#363740"/>
<path d="M30.5098 49.7713L30.3675 50.5284C29.1012 48.9226 27.8642 47.2953 26.6544 45.6485C25.5404 44.1324 24.3598 42.628 23.4739 40.9618L23.8506 40.437C24.2955 41.3073 24.834 42.1229 25.4017 42.9229C27.0523 45.2445 28.7558 47.5274 30.5098 49.7713Z" fill="white"/>
<path d="M30.1295 51.775L29.989 52.5203C28.551 50.8228 27.1383 49.1018 25.7959 47.3303C24.5843 45.7323 23.4467 44.0678 22.516 42.2904L22.8984 41.7596C23.3316 42.6104 23.8135 43.4356 24.3306 44.2395C25.7433 46.4366 27.3979 48.4678 29.0544 50.4814C29.4094 50.9146 29.7684 51.3457 30.1295 51.775Z" fill="white"/>
<path d="M29.5967 54.5771L29.4602 55.297C27.788 53.4766 26.2466 51.535 24.8514 49.4942C24.03 48.2923 23.2592 47.0552 22.5432 45.7869C22.1803 45.1469 21.8329 44.4991 21.4994 43.8455C21.4856 43.8182 21.47 43.789 21.4564 43.7616L21.8407 43.2269C21.9402 43.4202 22.0377 43.6151 22.1373 43.8084C22.514 44.5361 22.9061 45.2523 23.3159 45.9605C24.7637 48.4599 26.4222 50.8365 28.2719 53.0531C28.7031 53.5702 29.1461 54.0796 29.5967 54.5771Z" fill="white"/>
<path d="M96.7973 78.6858C93.2364 83.6711 66.9851 112.051 58.9444 95.4659C58.8274 95.224 58.683 94.8571 58.5191 94.4005C57.6509 91.9909 56.2577 87.1071 55.684 85.2123C55.7075 85.3567 55.7288 85.4991 55.7522 85.6435C55.797 85.9284 55.8439 86.2112 55.8888 86.4942C56.4058 89.6883 56.9386 92.7361 57.4732 95.7175C58.9991 104.223 60.5502 112.178 61.8302 121.417C62.2654 124.552 63.7364 126.96 59.6839 128.636C54.3336 130.849 38.2208 137.806 36.6599 135.465C35.8814 134.298 36.5155 113.518 35.9204 91.9535C35.577 79.4894 33.1595 66.9452 34.1195 57.3044C34.6112 52.3717 35.0853 47.8763 37.0112 43.3065C38.9565 43.7397 40.8903 44.2294 42.8062 44.7738C43.4637 44.9572 56.7572 48.0519 60.8546 53.32C62.9872 56.0614 72.2124 78.8804 72.2124 78.8804C72.2124 78.8804 80.1088 72.9879 89.5778 68.9294C90.9438 68.3445 97.7729 77.3199 96.7973 78.6858Z" fill="#C15252"/>
<path d="M32.3674 49.0277L32.5097 49.7712L32.6523 50.5282L32.8903 51.775L33.0308 52.5203L33.4229 54.5769L33.5595 55.2968L34.059 57.9232L42.1233 44.54L41.5632 43.7614L41.1789 43.227L40.5038 42.2904L40.1213 41.7596L39.5458 40.9615L39.1691 40.4367L38.6111 39.662L32.3674 49.0277Z" fill="#363740"/>
<path d="M32.5097 49.7713L32.6521 50.5284C33.9184 48.9226 35.1554 47.2953 36.3652 45.6485C37.4792 44.1324 38.6598 42.628 39.5457 40.9618L39.169 40.437C38.7241 41.3073 38.1856 42.1229 37.6179 42.9229C35.9673 45.2445 34.264 47.5274 32.5097 49.7713Z" fill="white"/>
<path d="M32.8903 51.775L33.0308 52.5203C34.4687 50.8228 35.8814 49.1018 37.2239 47.3303C38.4355 45.7323 39.5731 44.0678 40.5038 42.2904L40.1213 41.7596C39.6882 42.6104 39.2063 43.4356 38.6891 44.2395C37.2765 46.4366 35.6218 48.4678 33.9653 50.4814C33.6102 50.9146 33.2512 51.3457 32.8903 51.775Z" fill="white"/>
<path d="M33.423 54.5771L33.5596 55.297C35.2317 53.4766 36.7731 51.535 38.1683 49.4942C38.9897 48.2923 39.7605 47.0552 40.4765 45.7869C40.8395 45.1469 41.1868 44.4991 41.5204 43.8455C41.5341 43.8182 41.5497 43.789 41.5633 43.7616L41.179 43.2269C41.0796 43.4202 40.982 43.6151 40.8824 43.8084C40.5059 44.5361 40.1136 45.2523 39.7039 45.9605C38.2561 48.4599 36.5975 50.8365 34.748 53.0531C34.3166 53.5702 33.8738 54.0796 33.423 54.5771Z" fill="white"/>
<path d="M42.8761 35.0433C42.1548 36.804 41.1548 38.406 39.5161 39.4366C38.0627 40.3503 36.3135 40.7972 34.6005 40.7229C32.7048 40.6402 30.8817 39.9793 29.269 38.9632C28.4664 38.4572 27.7148 37.8636 27.0341 37.2085C25.8438 36.0637 24.8431 34.7385 23.9812 33.3345C22.5811 31.0494 21.451 28.4461 20.8915 25.7575C20.2535 22.7179 20.3417 19.5679 21.5802 16.6518C22.0817 15.4626 22.784 14.3607 23.6485 13.3999C27.2908 9.34492 33.5521 8.64452 38.0038 11.7951C40.3225 13.4379 42.0525 15.9058 42.9762 18.5772C43.2695 19.4237 43.5218 20.2929 43.7271 21.1752C44.7939 25.7453 44.6513 30.7045 42.8761 35.0433Z" fill="#FFCFCA"/>
<path d="M33.6631 26.8956C33.4245 26.9078 33.0952 26.5284 33.0042 25.9644C32.9562 25.6673 32.9852 25.3701 33.0838 25.149C33.1179 25.0725 33.2129 24.8921 33.359 24.8685C33.3667 24.8673 33.374 24.8665 33.3816 24.8661C33.6203 24.8538 33.9495 25.2333 34.0404 25.7973C34.0884 26.0946 34.0594 26.3917 33.9608 26.6127C33.9267 26.6893 33.8317 26.8694 33.6856 26.893C33.6782 26.8944 33.6707 26.8952 33.6631 26.8956Z" fill="#1F3C49"/>
<path d="M40.817 26.2016C40.6155 26.2119 40.2775 25.8748 40.1852 25.302C40.1387 25.0139 40.1667 24.7261 40.262 24.5123C40.3308 24.3579 40.4259 24.2604 40.5227 24.2447C40.5296 24.2436 40.5366 24.2429 40.5435 24.2425C40.7451 24.2322 41.0831 24.5695 41.1754 25.1423C41.2217 25.4302 41.1937 25.7182 41.0985 25.9319C41.0296 26.0863 40.9346 26.1839 40.8379 26.1995C40.8309 26.2005 40.824 26.2012 40.817 26.2016Z" fill="#1F3C49"/>
<path d="M37.2267 27.5006C37.4137 27.2951 37.7298 27.2071 38.0282 27.2617C38.3319 27.3123 38.6119 27.5291 38.7526 27.8069C38.9005 28.0809 38.9182 28.4348 38.7858 28.7129C38.6599 28.9891 38.4066 29.1982 38.1307 29.2335C38.3233 29.04 38.4314 28.8222 38.4724 28.6065C38.5135 28.3921 38.4748 28.1866 38.3794 28.0015C38.2826 27.8171 38.136 27.6676 37.9364 27.5785C37.7362 27.4884 37.4953 27.4528 37.2267 27.5006Z" fill="#1F3C49"/>
<path d="M33.8834 21.7457C33.5468 21.5803 33.1655 21.482 32.7805 21.4611C32.3774 21.4394 31.9712 21.5022 31.6057 21.6432C31.3195 21.7535 31.1763 22.0764 31.2866 22.3629C31.3422 22.5072 31.4564 22.6227 31.5993 22.6796C31.6558 22.7022 31.715 22.7152 31.7758 22.7185C31.8545 22.7227 31.9318 22.7105 32.0057 22.682C32.2278 22.5962 32.4756 22.558 32.7225 22.5714C32.9578 22.5841 33.1891 22.6439 33.3927 22.7448C33.4604 22.7781 33.533 22.7971 33.6082 22.8012C33.8308 22.8132 34.0385 22.6915 34.1372 22.4911C34.2726 22.216 34.1591 21.8818 33.8834 21.7457Z" fill="#1F3C49"/>
<path d="M40.7123 20.5879C40.5832 20.5604 40.4497 20.5428 40.3156 20.5357C39.7252 20.5038 39.1361 20.6667 38.6571 20.9946C38.4045 21.1679 38.3395 21.5145 38.5129 21.7682C38.5886 21.8786 38.7017 21.958 38.8307 21.9916C38.867 22.0011 38.9045 22.0069 38.9418 22.0089C39.0633 22.0155 39.1856 21.9811 39.2859 21.9124C39.5599 21.7249 39.9127 21.6278 40.2537 21.6462C40.3309 21.6502 40.4073 21.6604 40.4811 21.676C40.5099 21.6821 40.5384 21.6859 40.5669 21.6874C40.8423 21.7023 41.0836 21.5174 41.1409 21.2476C41.2037 20.9512 41.0135 20.6556 40.7123 20.5879Z" fill="#1F3C49"/>
<path d="M33.525 25.2368C33.1764 25.1646 33.0635 25.7069 33.4129 25.7792C33.7616 25.8516 33.8742 25.3092 33.525 25.2368Z" fill="white"/>
<path d="M40.7914 24.5366C40.4428 24.4645 40.3299 25.0067 40.6793 25.079C41.0281 25.1512 41.1408 24.609 40.7914 24.5366Z" fill="white"/>
<path d="M41.5673 30.2482C41.6652 31.2146 41.4913 32.1346 41.115 32.9179C40.5128 34.1754 39.3893 35.0704 38.0294 35.208C36.6364 35.3491 35.3277 34.6625 34.4897 33.5038C33.9946 32.8266 33.6625 31.9871 33.5685 31.0585C33.5652 31.0253 33.5662 30.9915 33.5626 30.9559L41.5522 30.1464C41.556 30.182 41.564 30.2149 41.5673 30.2482Z" fill="#D55454"/>
<path d="M41.228 30.1792C40.4287 31.2186 39.1762 31.9494 37.7143 32.0975C36.2524 32.2456 34.8787 31.7811 33.8872 30.923L41.228 30.1792Z" fill="white"/>
<path d="M41.1149 32.9181C40.5127 34.1755 39.3892 35.0705 38.0293 35.2082C36.6363 35.3493 35.3276 34.6627 34.4896 33.504C35.8234 33.0659 37.2215 32.8187 38.6246 32.7774C39.4574 32.7539 40.2905 32.8019 41.1149 32.9181Z" fill="#F37C7C"/>
<path d="M33.216 29.0932C33.2643 30.0024 32.3026 30.7928 31.0683 30.8583C29.8337 30.9239 28.7938 30.24 28.7455 29.3307C28.6971 28.4214 29.6588 27.6311 30.8933 27.5656C32.1277 27.5001 33.1676 28.1839 33.216 29.0932Z" fill="#F9BFBB"/>
<path d="M43.6261 27.6146C43.6587 28.2286 43.0093 28.7623 42.1756 28.8067C41.3418 28.851 40.6395 28.3891 40.607 27.7751C40.5744 27.1611 41.2237 26.6274 42.0575 26.583C42.8912 26.5389 43.5935 27.0006 43.6261 27.6146Z" fill="#F9BFBB"/>
<path d="M20.1606 14.2661C19.7963 12.8521 20.2583 11.2829 21.1737 10.206C22.0891 9.12913 23.4039 8.51153 24.7456 8.29028C26.0874 8.06903 27.4619 8.21715 28.7987 8.48743C30.0862 8.74771 31.3758 9.12268 32.6818 9.04413C34.285 8.94775 35.8368 8.13384 36.893 6.83569C37.8934 5.60608 40.0443 5.78746 41.3457 6.64583C42.6469 7.50419 43.9295 9.01104 44.1975 10.6299C44.4546 12.1818 44.3088 14.7678 41.8805 16.1898C39.0182 17.866 30.0175 17.2723 28.8018 17.2421C27.5861 17.2119 26.2801 17.5297 25.4779 18.5097C23.8849 20.4559 23.574 23.3878 23.4612 25.988C22.5212 25.4557 21.625 25.235 20.5659 25.2406C20.0995 25.2431 19.5912 25.2794 19.0218 25.6926C18.0173 23.748 17.4258 21.6592 16.9659 19.4918C16.7378 18.4173 16.5797 17.3071 16.7148 16.2168C16.7662 15.8016 16.8642 15.3824 17.0865 15.0398C17.4213 14.5236 18.0054 14.244 18.5879 14.1819C19.1701 14.12 19.5949 14.0988 20.1606 14.2661Z" fill="#603813"/>
</g>
</g>
<defs>
<filter id="filter0_d_215_2612" x="0.5" y="0" width="61" height="61" filterUnits="userSpaceOnUse" color-interpolation-filters="sRGB">
<feFlood flood-opacity="0" result="BackgroundImageFix"/>
<feColorMatrix in="SourceAlpha" type="matrix" values="0 0 0 0 0 0 0 0 0 0 0 0 0 0 0 0 0 0 127 0" result="hardAlpha"/>
<feOffset dy="3.5"/>
<feGaussianBlur stdDeviation="2.75"/>
<feColorMatrix type="matrix" values="0 0 0 0 0 0 0 0 0 0 0 0 0 0 0 0 0 0 0.02 0"/>
<feBlend mode="normal" in2="BackgroundImageFix" result="effect1_dropShadow_215_2612"/>
<feBlend mode="normal" in="SourceGraphic" in2="effect1_dropShadow_215_2612" result="shape"/>
</filter>
</defs>
</svg>
