<svg width="62" height="61" viewBox="0 0 62 61" fill="none" xmlns="http://www.w3.org/2000/svg">
<g filter="url(#filter0_d_215_2711)">
<rect x="6" y="2" width="50" height="50" rx="12" fill="#4FD1C5"/>
</g>
<mask id="mask0_215_2711" style="mask-type:alpha" maskUnits="userSpaceOnUse" x="6" y="2" width="50" height="50">
<rect x="6" y="2" width="50" height="50" rx="12" fill="#4FD1C5"/>
</mask>
<g mask="url(#mask0_215_2711)">
<mask id="mask1_215_2711" style="mask-type:luminance" maskUnits="userSpaceOnUse" x="-8" y="-8" width="78" height="77">
<path d="M31.331 68.9125C52.5698 68.9125 69.7872 51.6951 69.7872 30.4563C69.7872 9.21745 52.5698 -8 31.331 -8C10.0922 -8 -7.12526 9.21745 -7.12526 30.4563C-7.12526 51.6951 10.0922 68.9125 31.331 68.9125Z" fill="white"/>
</mask>
<g mask="url(#mask1_215_2711)">
<path d="M31.331 68.9125C52.5698 68.9125 69.7872 51.6951 69.7872 30.4563C69.7872 9.21745 52.5698 -8 31.331 -8C10.0922 -8 -7.12526 9.21745 -7.12526 30.4563C-7.12526 51.6951 10.0922 68.9125 31.331 68.9125Z" fill="#FCE3C3"/>
</g>
<mask id="mask2_215_2711" style="mask-type:luminance" maskUnits="userSpaceOnUse" x="-8" y="-8" width="78" height="77">
<path d="M31.331 68.9125C52.5698 68.9125 69.7872 51.6951 69.7872 30.4563C69.7872 9.21745 52.5698 -8 31.331 -8C10.0922 -8 -7.12526 9.21745 -7.12526 30.4563C-7.12526 51.6951 10.0922 68.9125 31.331 68.9125Z" fill="white"/>
</mask>
<g mask="url(#mask2_215_2711)">
<path d="M45.7113 45.2837C44.456 51.943 43.1116 58.5551 42.2573 65.2766C41.4478 71.6416 40.6683 78.0138 39.6554 84.3498C34.4389 84.4664 29.2383 84.247 24.0362 83.8428C18.857 83.439 13.7361 82.7194 8.87182 80.8245C6.29181 79.8204 3.79171 78.5895 1.41717 77.1523C3.74573 73.7713 5.17232 69.874 6.72736 66.1034C8.39336 62.0627 9.82334 57.9246 11.0115 53.7188C13.6031 44.5392 14.6344 35.3473 15.2511 25.869C15.6025 20.4763 17.1462 14.8073 20.7744 10.6675C24.4198 6.50461 30.5266 4.1282 35.8912 6.15492C39.2046 7.40777 41.904 10.0032 43.7061 13.0536C44.5638 14.5034 45.2299 16.0547 45.745 17.6593C45.8835 18.086 46.0094 18.5178 46.1259 18.9518C46.4935 20.3121 46.7641 21.7007 46.9624 23.0942C47.269 25.2599 47.4071 27.4327 47.4153 29.6072C47.4324 34.8641 46.6828 40.1244 45.7113 45.2837Z" fill="#345668"/>
<path d="M41.3523 46.3693C40.6336 46.9317 39.7126 47.1442 38.8236 47.34C37.7517 47.5784 36.6774 47.8166 35.583 47.8961C33.4497 48.0517 31.4375 47.5151 29.3461 47.0683C29.2419 45.8397 29.1348 44.611 29.0307 43.3824C28.8999 41.846 28.7663 40.3066 28.4823 38.7904C28.3942 38.326 28.2951 37.8633 28.1818 37.405C27.908 36.2615 27.5696 35.1347 27.2313 34.005C26.9532 33.0786 26.6755 32.1495 26.3974 31.2233C27.0029 31.6895 27.5549 31.9062 28.2656 32.1994C31.2606 33.4346 34.301 34.5553 37.3557 35.6357C38.276 35.9601 39.2045 36.2854 40.1718 36.4072L40.8072 41.7719L41.3523 46.3693Z" fill="#FFCFCA"/>
<path d="M40.8075 41.772C37.4565 41.3058 34.1755 40.3634 31.1271 38.9116C30.1576 38.4507 29.1499 37.9538 28.1823 37.405C27.9084 36.2615 27.5701 35.1347 27.2318 34.005C26.9537 33.0786 26.6759 32.1495 26.3978 31.2233C27.0034 31.6895 27.5553 31.9062 28.2661 32.1994C31.2611 33.4346 34.3014 34.5553 37.3562 35.6357C38.2765 35.9601 39.2049 36.2854 40.1722 36.4072L40.8075 41.772Z" fill="#F9BFBB"/>
<path d="M45.9407 33.1372C45.4219 34.9693 44.608 36.6748 43.0947 37.8842C41.7524 38.9566 40.0633 39.5979 38.3517 39.717C36.4573 39.8484 34.5701 39.3965 32.852 38.5678C31.997 38.1552 31.1826 37.6496 30.432 37.0749C29.1196 36.0706 27.9751 34.8656 26.9598 33.5668C25.3103 31.4524 23.8934 28.9909 23.034 26.3806C22.057 23.4298 21.7901 20.2877 22.6929 17.2485C23.0577 16.0094 23.6319 14.8346 24.3832 13.782C27.5481 9.33948 33.6954 7.93767 38.4769 10.5691C40.9677 11.9414 42.9659 14.2006 44.1851 16.7529C44.5722 17.5617 44.921 18.3975 45.2244 19.2517C46.8003 23.6757 47.217 28.6229 45.9407 33.1372Z" fill="#FFCFCA"/>
<path d="M45.7451 17.6591C44.245 15.4368 42.7404 13.1211 40.7619 11.3642C38.9888 9.78962 36.7851 8.71662 34.409 8.49927C29.908 8.08748 24.6599 9.79505 21.8003 13.4296C20.3572 15.2637 19.7008 17.565 19.6049 19.8482C19.5091 22.1315 19.9785 24.1506 20.5512 26.3802C24.8992 25.9667 28.6891 23.2109 30.9355 19.7425C32.608 17.1605 33.5184 14.2228 33.9906 11.215C35.3359 12.9564 36.8275 14.5854 38.578 15.9205C40.7596 17.5845 43.3838 18.7737 46.1258 18.9517C46.0094 18.5175 45.8835 18.0858 45.7451 17.6591Z" fill="#345668"/>
<path d="M62.5665 95.9035C61.1666 93.9012 58.1001 90.0171 58.1001 90.0171C58.1001 90.0171 60.0028 64.642 54.7786 53.8034C51.4582 50.3687 48.227 47.2809 43.4741 46.3967C39.9966 52.2281 38.9368 57.4876 38.3645 64.2531C37.6054 73.2244 37.3863 82.689 41.4359 90.7302C42.5574 92.9571 43.9815 95.0164 45.4293 97.0464C49.2508 102.404 53.5395 107.573 58.3181 112.188C59.6037 113.43 61.5397 113.709 63.1166 112.868L67.7176 110.413C69.222 109.611 69.7857 107.735 68.9708 106.237C66.9524 102.527 64.9209 99.2706 62.5665 95.9035Z" fill="#BADDD4"/>
<path d="M48.716 49.4925C48.4608 48.8154 46.403 47.3503 46.403 47.3503C46.403 47.3503 34.0927 44.8661 28.2496 45.6099C25.3279 45.9819 22.4414 46.6347 19.6466 47.5642C16.5797 48.5843 13.8995 49.7967 11.3699 51.8379C8.78854 53.9209 6.50341 56.352 4.33722 58.8558C3.29086 60.065 2.27232 61.298 1.25973 62.5356C-1.64945 66.0911 -4.69945 69.6593 -7.13287 73.5785C-10.6434 79.2324 -13.1898 86.457 -9.7945 92.7744C-7.76439 96.5518 -4.42611 99.4779 -1.14349 102.151C2.76233 105.331 7.04568 108.187 11.6363 110.315C12.9265 110.913 14.4688 110.46 15.2035 109.242C16.1806 107.623 16.9998 105.923 17.7458 104.182C18.1975 103.127 18.1157 101.923 17.5469 100.927C14.4372 95.4805 10.5752 90.3759 5.80233 85.4025C9.31027 82.0615 12.7994 78.5278 15.6227 74.6349C15.8888 77.9971 15.9977 81.3642 15.8261 84.7386C15.7768 85.7089 15.7169 86.7387 16.1819 87.5916C16.771 88.6717 18.031 89.1707 19.2036 89.543C27.7425 92.2535 37.0116 92.5794 45.7427 90.5727C47.5061 90.1674 49.3495 89.5947 50.4531 88.0614C51.4548 86.6696 51.6978 84.8784 51.9762 83.2312C52.4511 80.4206 52.7374 77.578 52.8364 74.7292C53.1351 66.1559 51.7419 57.5213 48.716 49.4925Z" fill="#BADDD4"/>
<path d="M43.7316 45.172C43.6645 44.9095 43.5846 44.646 43.5364 44.3959C43.3374 43.3659 43.5273 42.0511 42.3912 41.3405C41.8329 40.9915 41.1441 41.0517 40.4992 41.0429C39.7385 41.0325 38.9787 41.0461 38.2179 41.03C36.6232 40.9961 35.0261 40.8335 33.4543 40.5466C32.6522 40.4002 31.8568 40.2213 31.0714 40.011C30.3635 39.8211 29.648 39.5025 28.9137 39.4295C28.386 39.3771 27.8105 39.507 27.507 39.8691C27.3103 40.1036 27.2494 40.4032 27.1943 40.692C26.916 42.1525 26.66 43.6414 26.8951 45.1252C26.9676 45.5821 27.1011 46.0604 27.4707 46.4043C28.3046 47.1802 30.1277 47.4212 31.2519 47.6607C34.966 48.4514 38.9421 48.5571 42.4302 47.2769C42.851 47.1225 43.274 46.9413 43.5653 46.6405C43.9849 46.2068 43.8643 45.6917 43.7316 45.172Z" fill="#97C6B7"/>
<path d="M28.6078 46.6581C28.5481 46.6503 28.4979 46.6092 28.488 46.5552C28.0905 44.3773 28.0583 42.1776 28.3923 40.0168C28.4022 39.9535 28.4694 39.9108 28.5434 39.9206C28.5442 39.9208 28.5451 39.9208 28.5461 39.9209C28.6211 39.932 28.6738 39.993 28.664 40.057C28.3333 42.1954 28.365 44.3726 28.7585 46.5281C28.7704 46.5926 28.7195 46.6511 28.6446 46.6586C28.6323 46.6599 28.6197 46.6596 28.6078 46.6581Z" fill="#83B2A3"/>
<path d="M29.7724 47.0701C29.7716 47.07 29.7709 47.07 29.7699 47.0698C29.6951 47.0588 29.6421 46.9978 29.652 46.9337C29.803 45.9455 29.7796 44.9223 29.7572 43.9327L29.682 40.6371C29.6796 40.5412 29.663 40.5113 29.6496 40.503C29.5868 40.4647 29.57 40.391 29.6121 40.3384C29.6542 40.2858 29.7388 40.2743 29.8021 40.3128C29.9502 40.4032 29.954 40.5644 29.9558 40.6418L30.031 43.9375C30.0539 44.9357 30.0773 45.9679 29.9238 46.9736C29.9138 47.037 29.8464 47.0798 29.7724 47.0701Z" fill="#83B2A3"/>
<path d="M31.2037 47.3645C31.1355 47.3555 31.0826 47.3042 31.0822 47.244C31.0707 45.1095 31.1348 42.9495 31.2731 40.8235C31.2772 40.7588 31.3418 40.7113 31.4173 40.7176C31.4911 40.7249 31.5505 40.7812 31.5463 40.846C31.4085 42.9673 31.3446 45.1226 31.3561 47.2523C31.3564 47.3173 31.2955 47.368 31.2198 47.3658C31.2142 47.3656 31.209 47.3651 31.2037 47.3645Z" fill="#83B2A3"/>
<path d="M32.3711 47.6042C32.2984 47.5947 32.2445 47.538 32.2496 47.4751C32.4165 45.3715 32.4492 43.2315 32.3468 41.1141C32.3437 41.0492 32.4026 40.9964 32.4783 40.9962C32.5548 40.9972 32.6179 41.049 32.621 41.1138C32.7238 43.2394 32.6911 45.3883 32.5235 47.5004C32.5184 47.565 32.4529 47.6117 32.3774 47.6047C32.3753 47.6047 32.3731 47.6044 32.3711 47.6042Z" fill="#83B2A3"/>
<path d="M33.6644 47.9663C33.5893 47.9565 33.5353 47.8963 33.5436 47.832C33.6702 46.8735 33.6989 45.8341 33.6369 44.462L33.631 44.3323C33.6091 43.8632 33.5864 43.3781 33.6551 42.9037C33.6787 42.7403 33.7131 42.5779 33.7476 42.4157C33.8136 42.1056 33.8758 41.8124 33.865 41.5104C33.8626 41.4454 33.922 41.3933 33.9977 41.3938C34.0725 41.3936 34.1361 41.4476 34.1386 41.5127C34.1504 41.8395 34.0825 42.1585 34.017 42.4671C33.9834 42.6251 33.9498 42.7829 33.9267 42.942C33.8609 43.3973 33.883 43.8727 33.9043 44.3325L33.9103 44.4623C33.9729 45.847 33.9437 46.8972 33.8154 47.8678C33.8073 47.9321 33.7394 47.9762 33.6644 47.9663Z" fill="#83B2A3"/>
<path d="M34.7864 47.8668C34.7849 47.8667 34.783 47.8663 34.7815 47.8662C34.7066 47.8541 34.6551 47.7925 34.6661 47.7286C35.0109 45.7327 35.1234 43.6906 35.0002 41.6589C34.9961 41.5939 35.0541 41.5405 35.1296 41.5398C35.2068 41.5386 35.2696 41.5912 35.2735 41.656C35.3977 43.7033 35.2844 45.7611 34.9367 47.7723C34.926 47.8348 34.8592 47.8764 34.7864 47.8668Z" fill="#83B2A3"/>
<path d="M36.291 47.8192C36.289 47.8189 36.2869 47.8187 36.2849 47.8184C36.21 47.8056 36.1588 47.7437 36.1706 47.6799C36.2551 47.2213 36.2075 46.7374 36.1617 46.2694C36.1403 46.0495 36.118 45.8222 36.109 45.5979C36.0894 45.1006 36.1348 44.5973 36.1787 44.1107C36.2519 43.3009 36.3276 42.4636 36.0943 41.6666C36.0756 41.6028 36.12 41.5406 36.1935 41.5271C36.2672 41.5136 36.3417 41.5543 36.3603 41.6179C36.6047 42.4529 36.5273 43.3097 36.4525 44.1384C36.4091 44.6187 36.3642 45.1153 36.3832 45.5996C36.3919 45.8179 36.4138 46.0423 36.4351 46.2593C36.4824 46.7411 36.5312 47.2395 36.4416 47.7259C36.4304 47.7878 36.3637 47.8287 36.291 47.8192Z" fill="#83B2A3"/>
<path d="M37.474 47.7297C37.4009 47.7202 37.3471 47.6625 37.353 47.5994C37.5344 45.6326 37.5913 43.6307 37.5217 41.6486C37.5195 41.5836 37.5789 41.5313 37.6544 41.532C37.7299 41.5318 37.7932 41.586 37.7954 41.6509C37.8651 43.6415 37.8081 45.6521 37.6257 47.6272C37.6198 47.6919 37.5539 47.738 37.4786 47.7302C37.4771 47.7302 37.4757 47.7301 37.474 47.7297Z" fill="#83B2A3"/>
<path d="M38.81 47.4331C38.7362 47.4235 38.6823 47.3651 38.6889 47.3015C38.8791 45.5096 39.0759 43.6566 38.7189 41.836C38.7064 41.7716 38.7564 41.7125 38.8309 41.7042C38.9062 41.696 38.9761 41.7415 38.9889 41.806C39.352 43.6568 39.1535 45.5253 38.9617 47.3322C38.9549 47.3966 38.8883 47.4421 38.8131 47.4336C38.8119 47.4333 38.8111 47.4331 38.81 47.4331Z" fill="#83B2A3"/>
<path d="M39.9689 47.632C39.9002 47.623 39.8468 47.571 39.8471 47.5103L39.8706 41.835C39.8709 41.77 39.9325 41.7198 40.0084 41.7227C40.0819 41.7242 40.1453 41.7805 40.1452 41.8455L40.1217 47.5208C40.1213 47.5858 40.0598 47.636 39.9839 47.6331C39.9788 47.633 39.9738 47.6326 39.9689 47.632Z" fill="#83B2A3"/>
<path d="M41.3463 47.2709C41.2757 47.2617 41.2219 47.2074 41.2245 47.1456C41.2971 45.385 41.25 43.5973 41.0841 41.8322C41.078 41.7672 41.1343 41.7124 41.2098 41.7099C41.285 41.7063 41.3516 41.7577 41.3577 41.8227C41.5244 43.597 41.5719 45.3938 41.4987 47.1636C41.496 47.2284 41.4325 47.277 41.3567 47.2721C41.3533 47.2717 41.3497 47.2714 41.3463 47.2709Z" fill="#83B2A3"/>
<path d="M42.6778 46.7579C42.6683 46.7567 42.6588 46.7545 42.6494 46.7514C42.5776 46.7284 42.5391 46.6601 42.5631 46.5996C42.7305 46.1759 42.6554 45.7178 42.5756 45.2327C42.539 45.0096 42.501 44.7787 42.4887 44.5516C42.4791 44.3698 42.486 44.1879 42.4928 44.0118C42.4996 43.8351 42.5065 43.6524 42.496 43.4749C42.4619 42.893 42.2407 42.3178 42.0266 41.7617C42.0026 41.6993 42.0413 41.634 42.1129 41.6157C42.1849 41.5975 42.2622 41.6335 42.2863 41.6959C42.5062 42.2674 42.7334 42.8582 42.7695 43.4725C42.7806 43.6599 42.7734 43.8475 42.7663 44.0291C42.7597 44.2006 42.7531 44.3779 42.7622 44.5505C42.7738 44.7665 42.8109 44.9914 42.8467 45.2093C42.9273 45.7002 43.011 46.208 42.8228 46.6836C42.8018 46.7362 42.7405 46.766 42.6778 46.7579Z" fill="#83B2A3"/>
<path d="M28.2176 32.6983C26.8505 33.9034 24.8253 34.3157 23.1017 33.7178C21.6457 33.2137 20.4606 32.0026 19.9563 30.5507C19.8654 30.2871 19.797 30.017 19.7513 29.7378C19.6733 29.2522 19.6711 28.7509 19.7853 28.2729C20.0735 27.0935 21.134 26.163 22.3278 25.9486C23.5241 25.7343 24.8011 26.2068 25.6335 27.0913L26.6269 29.2475L28.2176 32.6983Z" fill="#FFCFCA"/>
<path d="M15.5607 50.9065C16.3076 51.4498 16.9426 52.1575 17.4387 52.9507C17.9407 53.7424 18.3069 54.6152 18.5843 55.5085C18.8644 56.4026 19.0375 57.3262 19.1586 58.2495C19.2787 59.1735 19.3307 60.1042 19.3502 61.034C19.3592 61.9643 19.32 62.8939 19.2409 63.8195C19.1535 64.7442 19.0319 65.6656 18.8544 66.5766C18.5091 68.3999 17.9475 70.1945 17.0817 71.8273C17.7144 70.0934 18.1325 68.3068 18.3861 66.4991C18.5054 65.5929 18.6143 64.686 18.6666 63.7747C18.727 62.8646 18.7609 61.9526 18.7423 61.0416C18.7348 60.1308 18.6859 59.2204 18.5882 58.3159C18.5456 57.8622 18.4821 57.4139 18.409 56.9661C18.3279 56.5204 18.2404 56.0757 18.1292 55.6369C18.0154 55.1992 17.8858 54.7646 17.7276 54.341C17.6559 54.1258 17.5617 53.9204 17.478 53.7096C17.38 53.5062 17.2917 53.2965 17.1814 53.0988C16.7703 52.2893 16.2206 51.5524 15.5607 50.9065Z" fill="#97C6B7"/>
<path d="M26.7399 47.6029C26.6772 47.6029 26.6185 47.5638 26.5965 47.5013C26.5683 47.422 26.6099 47.3351 26.689 47.3071C26.8803 47.2391 27.0717 47.1715 27.2631 47.1043C27.3425 47.0763 27.4292 47.1181 27.457 47.1974C27.4849 47.2768 27.4433 47.3636 27.3641 47.3915C27.1727 47.4587 26.9816 47.5261 26.7906 47.5939C26.7738 47.6 26.7566 47.6029 26.7399 47.6029Z" fill="#97C6B7"/>
<path d="M13.4238 107.155C13.3956 107.155 13.3671 107.147 13.3417 107.131C12.9986 106.91 12.6555 106.689 12.3131 106.467C12.2427 106.421 12.2225 106.327 12.2683 106.256C12.3141 106.186 12.4081 106.166 12.4787 106.212C12.8208 106.434 13.1635 106.655 13.5064 106.875C13.577 106.92 13.5975 107.015 13.552 107.085C13.5229 107.13 13.4738 107.155 13.4238 107.155ZM11.3709 105.822C11.3423 105.822 11.3132 105.814 11.2875 105.797C10.9462 105.573 10.6059 105.348 10.2666 105.121C10.1968 105.074 10.178 104.979 10.2248 104.909C10.2715 104.84 10.366 104.821 10.4359 104.868C10.7745 105.094 11.1142 105.319 11.4548 105.543C11.525 105.589 11.5445 105.684 11.4984 105.754C11.469 105.798 11.4205 105.822 11.3709 105.822ZM9.33743 104.461C9.30791 104.461 9.27804 104.452 9.25175 104.434C8.91444 104.204 8.57849 103.971 8.24424 103.737C8.17553 103.688 8.1589 103.593 8.20709 103.525C8.25527 103.456 8.35028 103.439 8.419 103.487C8.7524 103.721 9.08733 103.953 9.42345 104.183C9.49284 104.23 9.51049 104.325 9.46315 104.395C9.43363 104.438 9.38596 104.461 9.33743 104.461ZM7.3348 103.054C7.30392 103.054 7.2727 103.045 7.24589 103.025C6.9147 102.786 6.58537 102.544 6.25824 102.299C6.19088 102.249 6.1773 102.153 6.22753 102.086C6.27792 102.019 6.3731 102.005 6.44046 102.055C6.76623 102.299 7.09421 102.54 7.42405 102.779C7.49208 102.828 7.50736 102.923 7.45816 102.991C7.42847 103.032 7.38197 103.054 7.3348 103.054ZM5.37629 101.587C5.34355 101.587 5.3108 101.577 5.28298 101.555C4.9584 101.303 4.635 101.046 4.32213 100.793C4.25697 100.74 4.24696 100.644 4.29973 100.579C4.35266 100.513 4.44837 100.503 4.51369 100.556C4.82504 100.809 5.14656 101.064 5.46961 101.315C5.53595 101.367 5.54783 101.462 5.49642 101.528C5.46639 101.567 5.4216 101.587 5.37629 101.587ZM3.47598 100.046C3.44119 100.046 3.40624 100.034 3.37757 100.009C3.06181 99.7415 2.75029 99.4705 2.4515 99.204C2.38872 99.148 2.38329 99.0519 2.43911 98.9892C2.49494 98.9264 2.59115 98.921 2.65393 98.9768C2.95085 99.2416 3.2605 99.5111 3.57439 99.7774C3.63853 99.8317 3.64632 99.9278 3.59186 99.9917C3.56183 100.027 3.51907 100.046 3.47598 100.046ZM1.64319 98.4235C1.60688 98.4235 1.57024 98.4104 1.54105 98.3841C1.24141 98.1123 0.939401 97.8362 0.637387 97.5558C0.575797 97.4986 0.572234 97.4024 0.629413 97.3408C0.686592 97.2792 0.78296 97.2756 0.844381 97.3328C1.14555 97.6124 1.44672 97.8876 1.74551 98.1588C1.80778 98.2153 1.81235 98.3115 1.75602 98.3738C1.72582 98.4065 1.68459 98.4235 1.64319 98.4235ZM-0.149205 96.756C-0.187211 96.756 -0.225219 96.7419 -0.254742 96.7134C-0.561676 96.4176 -0.85606 96.1275 -1.1294 95.8509C-1.18845 95.7912 -1.18776 95.6948 -1.12821 95.6358C-1.06848 95.5767 -0.972111 95.5772 -0.913065 95.637C-0.641592 95.9117 -0.349086 96.2001 -0.0436782 96.4941C0.0167247 96.5525 0.0185992 96.6487 -0.0395979 96.7093C-0.0696297 96.7403 -0.109332 96.756 -0.149205 96.756ZM-1.86866 95.0124C-1.90955 95.0124 -1.95026 94.9961 -1.98013 94.9637C-2.26755 94.6539 -2.54326 94.3453 -2.7993 94.0466C-2.8541 93.9828 -2.84664 93.8868 -2.78284 93.8322C-2.71922 93.7774 -2.62319 93.7845 -2.56838 93.8486C-2.31472 94.1442 -2.04172 94.4498 -1.75701 94.7567C-1.69983 94.8183 -1.70357 94.9145 -1.76516 94.9717C-1.79451 94.999 -1.8315 95.0124 -1.86866 95.0124ZM-3.45881 93.1533C-3.50411 93.1533 -3.54891 93.1331 -3.57894 93.0946C-3.83735 92.7626 -4.08285 92.4287 -4.30835 92.1022C-4.35602 92.033 -4.33872 91.9383 -4.26967 91.8906C-4.20061 91.8426 -4.10576 91.8603 -4.05809 91.9293C-3.83599 92.251 -3.59404 92.5802 -3.33903 92.9078C-3.28745 92.9741 -3.29932 93.0697 -3.36566 93.1213C-3.39315 93.1428 -3.42607 93.1533 -3.45881 93.1533ZM-4.84435 91.1386C-4.89627 91.1386 -4.94683 91.1122 -4.97516 91.0643C-5.19014 90.7028 -5.38831 90.3375 -5.56426 89.9783C-5.60125 89.9029 -5.57002 89.8118 -5.49452 89.7748C-5.41885 89.7377 -5.3279 89.7692 -5.29091 89.8446C-5.11853 90.1963 -4.92425 90.5545 -4.71352 90.9089C-4.67059 90.9812 -4.69435 91.0745 -4.76646 91.1174C-4.79123 91.1317 -4.81788 91.1386 -4.84435 91.1386ZM-5.9153 88.9419C-5.97672 88.9419 -6.03458 88.9044 -6.05749 88.8437C-6.20595 88.4523 -6.33303 88.0556 -6.43534 87.6645C-6.45672 87.5832 -6.40803 87.5001 -6.32659 87.4789C-6.24531 87.4576 -6.16218 87.5062 -6.14097 87.5874C-6.04137 87.968 -5.91768 88.3544 -5.77295 88.7358C-5.74309 88.8143 -5.78262 88.9022 -5.86118 88.9319C-5.87917 88.9387 -5.89732 88.9419 -5.9153 88.9419ZM-6.529 86.5799C-6.60366 86.5799 -6.66898 86.525 -6.6795 86.4488C-6.68697 86.3958 -6.69392 86.3427 -6.70054 86.2895C-6.74448 85.9357 -6.76908 85.5726 -6.77384 85.21C-6.77485 85.126 -6.70767 85.057 -6.62369 85.056C-6.53732 85.0612 -6.47064 85.1221 -6.46962 85.2061C-6.46504 85.5575 -6.44111 85.9094 -6.39869 86.252C-6.39225 86.3037 -6.38546 86.3553 -6.37833 86.4069C-6.3668 86.49 -6.42483 86.5669 -6.50797 86.5784C-6.51492 86.5794 -6.52204 86.5799 -6.529 86.5799ZM-6.56447 84.1387C-6.56973 84.1387 -6.57516 84.1384 -6.58042 84.1379C-6.6639 84.129 -6.72463 84.0544 -6.71598 83.9707C-6.67424 83.5713 -6.60909 83.1597 -6.52238 82.7474C-6.50508 82.6651 -6.42431 82.6129 -6.34219 82.6298C-6.2599 82.6471 -6.2073 82.7277 -6.22461 82.81C-6.30911 83.2121 -6.37256 83.6134 -6.41328 84.0025C-6.4216 84.0805 -6.48761 84.1387 -6.56447 84.1387ZM-6.06767 81.7464C-6.08243 81.7464 -6.09719 81.7441 -6.11195 81.7397C-6.19237 81.7153 -6.23768 81.6303 -6.21325 81.55C-6.0977 81.1703 -5.9618 80.7777 -5.80943 80.3832C-5.77906 80.3048 -5.691 80.266 -5.61278 80.2962C-5.5344 80.3264 -5.49537 80.4144 -5.52574 80.4928C-5.67556 80.8804 -5.80892 81.2657 -5.92226 81.6384C-5.94211 81.7041 -6.00251 81.7464 -6.06767 81.7464ZM-5.19132 79.4631C-5.21253 79.4631 -5.23408 79.4587 -5.25444 79.4493C-5.33079 79.4144 -5.36439 79.3241 -5.3296 79.2478C-5.16587 78.8899 -4.98432 78.5177 -4.78987 78.1414C-4.75153 78.0667 -4.65957 78.0373 -4.58491 78.076C-4.51026 78.1145 -4.48108 78.2063 -4.5196 78.281C-4.71183 78.6531 -4.89117 79.0209 -5.05286 79.3743C-5.07848 79.43 -5.13363 79.4631 -5.19132 79.4631ZM-4.07183 77.2872C-4.09711 77.2872 -4.1229 77.2809 -4.14648 77.2675C-4.21961 77.2263 -4.24541 77.1333 -4.20418 77.0604C-4.01313 76.7221 -3.81037 76.3753 -3.58437 76.0001C-3.5411 75.9283 -3.44761 75.9048 -3.3755 75.9484C-3.30356 75.9916 -3.28031 76.0851 -3.32375 76.1572C-3.54806 76.5298 -3.74946 76.8743 -3.93915 77.21C-3.96731 77.2594 -4.01872 77.2872 -4.07183 77.2872ZM-2.81372 75.1886C-2.84121 75.1886 -2.86921 75.1811 -2.89415 75.1655C-2.96541 75.1209 -2.98712 75.027 -2.9425 74.956C-2.726 74.6095 -2.50712 74.2644 -2.28587 73.921C-2.24023 73.8504 -2.14623 73.83 -2.07565 73.8755C-2.00507 73.921 -1.9847 74.0151 -2.03018 74.0857C-2.25058 74.4279 -2.46878 74.7719 -2.68443 75.1171C-2.71344 75.1631 -2.76299 75.1886 -2.81372 75.1886ZM-1.48944 73.1306C-1.51829 73.1306 -1.54729 73.1225 -1.57325 73.1053C-1.64333 73.059 -1.66251 72.9645 -1.61619 72.8946C-1.3907 72.5539 -1.16333 72.2148 -0.933767 71.8768C-0.886429 71.8072 -0.791923 71.7892 -0.722527 71.8364C-0.652962 71.8835 -0.634981 71.9782 -0.68215 72.0476C-0.910866 72.3846 -1.13788 72.7227 -1.36252 73.0624C-1.3917 73.1067 -1.44007 73.1306 -1.48944 73.1306ZM-0.114771 71.1059C-0.144803 71.1059 -0.175002 71.0971 -0.201471 71.0786C-0.270527 71.0308 -0.287494 70.9359 -0.239477 70.8669C-0.00634916 70.5316 0.22865 70.1975 0.46551 69.8648C0.514206 69.7963 0.609052 69.7801 0.677599 69.829C0.746146 69.8777 0.762095 69.9727 0.713399 70.0411C0.477218 70.373 0.242895 70.7062 0.010276 71.0406C-0.0194164 71.0832 -0.0667545 71.1059 -0.114771 71.1059ZM1.30334 69.1115C1.27229 69.1115 1.24107 69.102 1.2141 69.0825C1.14623 69.0331 1.13096 68.9379 1.18034 68.87C1.42025 68.5395 1.66168 68.2102 1.90448 67.8819C1.95437 67.8145 2.04972 67.8002 2.11725 67.85C2.18478 67.9 2.19904 67.9952 2.14898 68.0627C1.90669 68.3904 1.66576 68.7188 1.42635 69.0485C1.39683 69.0896 1.35034 69.1115 1.30334 69.1115ZM2.75844 67.1436C2.72671 67.1436 2.69448 67.1336 2.66716 67.1131C2.60014 67.0625 2.58657 66.9672 2.63713 66.9C2.88264 66.5739 3.12934 66.2486 3.37723 65.9242C3.42814 65.8575 3.52348 65.8445 3.5905 65.8957C3.65718 65.9468 3.66991 66.0421 3.61901 66.109C3.37146 66.4329 3.12527 66.7575 2.88027 67.0831C2.8504 67.1228 2.80476 67.1436 2.75844 67.1436ZM4.24459 65.1992C4.21201 65.1992 4.17927 65.1888 4.15144 65.1673C4.08493 65.1159 4.07288 65.0204 4.12429 64.9539C4.37438 64.6311 4.62533 64.3093 4.87746 63.9883C4.92938 63.9219 5.0249 63.9105 5.09107 63.9625C5.15724 64.0144 5.16862 64.1099 5.11687 64.1759C4.86525 64.4966 4.61447 64.8181 4.36489 65.1402C4.33485 65.1788 4.28989 65.1992 4.24459 65.1992ZM5.75534 63.2736C5.72225 63.2736 5.68883 63.2629 5.66083 63.2407C5.595 63.1884 5.58397 63.0927 5.63623 63.0271C5.88988 62.7074 6.14422 62.3883 6.3994 62.0698C6.452 62.0041 6.5477 61.9936 6.61319 62.046C6.67885 62.0985 6.68937 62.1943 6.63695 62.2598C6.3821 62.5781 6.12794 62.8968 5.87462 63.2161C5.84459 63.2537 5.80013 63.2736 5.75534 63.2736ZM7.28475 61.3631C7.25115 61.3631 7.21739 61.3521 7.18923 61.3293C7.1239 61.2766 7.11355 61.1807 7.16632 61.1154C7.42269 60.7978 7.6794 60.4807 7.93662 60.164C7.98973 60.0989 8.08543 60.089 8.15058 60.1418C8.21574 60.1947 8.22574 60.2906 8.17281 60.3558C7.91576 60.6724 7.65905 60.9892 7.40301 61.3064C7.37315 61.3438 7.3292 61.3631 7.28475 61.3631ZM8.82739 59.4631C8.79363 59.4631 8.75953 59.4519 8.7312 59.4289C8.66621 59.3758 8.65637 59.2799 8.70948 59.2147C8.96738 58.8986 9.22562 58.5829 9.48403 58.2671C9.53731 58.202 9.63316 58.1926 9.69815 58.2457C9.76313 58.299 9.77281 58.3949 9.71953 58.4599C9.46112 58.7755 9.20305 59.0912 8.94532 59.4071C8.91528 59.444 8.87151 59.4631 8.82739 59.4631ZM10.3775 57.5693C10.3436 57.5693 10.3095 57.5579 10.2811 57.5348C10.2162 57.4815 10.2067 57.3857 10.2601 57.3207L11.0365 56.3746C11.09 56.3098 11.1858 56.3005 11.2506 56.3537C11.3156 56.4072 11.3248 56.5031 11.2715 56.5679L10.4954 57.5136C10.4652 57.5503 10.4215 57.5693 10.3775 57.5693ZM11.9376 55.6837C11.9029 55.6837 11.8677 55.6718 11.8391 55.6474C11.7751 55.5929 11.7673 55.4969 11.8217 55.4329C12.1137 55.0899 12.3795 54.788 12.6341 54.5103C12.691 54.4483 12.7872 54.4443 12.8491 54.5009C12.911 54.5578 12.9153 54.654 12.8584 54.7159C12.6063 54.9909 12.343 55.2899 12.0535 55.6301C12.0233 55.6656 11.9807 55.6837 11.9376 55.6837ZM13.5974 53.8864C13.5577 53.8864 13.5181 53.871 13.4883 53.8402C13.4297 53.78 13.4311 53.6838 13.4913 53.6251C13.7981 53.327 14.1069 53.0487 14.4089 52.7981C14.4737 52.7447 14.5694 52.7535 14.6232 52.818C14.6768 52.8826 14.6678 52.9785 14.6033 53.0323C14.3073 53.2778 14.0046 53.5508 13.7034 53.8433C13.6737 53.872 13.6355 53.8864 13.5974 53.8864ZM15.4832 52.3317C15.4345 52.3317 15.3867 52.3083 15.3573 52.2652C15.31 52.1956 15.3282 52.1011 15.3976 52.0539C15.7245 51.8317 16.0783 51.613 16.449 51.4041C16.5221 51.3627 16.615 51.3888 16.6562 51.462C16.6974 51.5351 16.6716 51.6279 16.5983 51.6691C16.2351 51.8739 15.8886 52.088 15.5688 52.3054C15.5425 52.323 15.5128 52.3317 15.4832 52.3317ZM17.6094 51.1245C17.5527 51.1245 17.4984 51.0928 17.4721 51.0383C17.4356 50.9624 17.4675 50.8717 17.5432 50.8352C17.8909 50.6681 18.2577 50.5025 18.6647 50.3291C18.7421 50.2962 18.8314 50.3321 18.8643 50.4093C18.8972 50.4867 18.8612 50.5759 18.784 50.6089C18.3812 50.7804 18.0185 50.9441 17.675 51.1094C17.654 51.1196 17.6316 51.1245 17.6094 51.1245ZM19.8575 50.1587C19.7968 50.1587 19.7394 50.1222 19.716 50.0623C19.6851 49.9843 19.7237 49.8959 19.8017 49.865C20.0662 49.7607 20.3312 49.6582 20.5961 49.5564L20.9444 49.4227C21.0228 49.3927 21.1109 49.432 21.1409 49.5104C21.1709 49.589 21.1316 49.6769 21.0532 49.7069L20.7054 49.8402C20.4414 49.9417 20.1772 50.0439 19.9135 50.1479C19.895 50.1553 19.876 50.1587 19.8575 50.1587ZM22.1427 49.2827C22.0812 49.2827 22.0234 49.245 22.0003 49.1841C21.9706 49.1056 22.0103 49.0177 22.089 48.9882C22.471 48.8441 22.8532 48.7011 23.2358 48.5591C23.3146 48.5299 23.4023 48.5699 23.4315 48.6486C23.4607 48.7274 23.4206 48.8149 23.3419 48.8443C22.9598 48.9861 22.578 49.129 22.1964 49.2727C22.1786 49.2795 22.1605 49.2827 22.1427 49.2827ZM24.4371 48.431C24.3752 48.431 24.3168 48.3926 24.2943 48.331C24.2654 48.2521 24.3061 48.1647 24.3849 48.1359C24.7681 47.9957 25.1519 47.8566 25.5359 47.7185C25.6148 47.6903 25.7022 47.7311 25.7305 47.8101C25.759 47.8892 25.718 47.9762 25.6389 48.0047C25.2554 48.1427 24.8722 48.2818 24.4894 48.4216C24.4721 48.4279 24.4544 48.431 24.4371 48.431Z" fill="#97C6B7"/>
<path d="M35.694 25.8225C35.5511 24.9682 34.9824 24.3514 34.4238 24.4449C33.8653 24.5384 33.5283 25.3067 33.6713 26.161C33.8142 27.0153 34.3829 27.632 34.9415 27.5385C35.5 27.445 35.837 26.6768 35.694 25.8225Z" fill="#1F3C49"/>
<path d="M43.4274 25.0661C43.2879 24.2327 42.7333 23.631 42.1883 23.7223C41.6435 23.8134 41.3147 24.5628 41.4541 25.3963C41.5936 26.2297 42.1483 26.8313 42.6933 26.7401C43.2381 26.6489 43.5669 25.8995 43.4274 25.0661Z" fill="#1F3C49"/>
<path d="M32.607 22.521C32.5176 22.521 32.4291 22.4818 32.369 22.4064C32.2641 22.2749 32.2857 22.0834 32.4172 21.9784C33.2406 21.3209 34.4414 21.166 35.4044 21.5928C35.5581 21.6609 35.6275 21.8407 35.5595 21.9944C35.4915 22.1483 35.3118 22.2179 35.1582 22.1496C34.3966 21.8122 33.4478 21.9346 32.7967 22.4544C32.7404 22.4993 32.6734 22.521 32.607 22.521Z" fill="#1F3C49"/>
<path d="M40.5667 21.809C40.4737 21.809 40.3817 21.7664 40.322 21.6859C40.2219 21.5507 40.2502 21.36 40.3851 21.26C41.1643 20.6818 42.2758 20.5741 43.1513 20.9917C43.303 21.064 43.3673 21.2457 43.2952 21.3975C43.2229 21.5494 43.0413 21.6139 42.8896 21.5414C42.2116 21.2177 41.3509 21.3014 40.7477 21.7491C40.6933 21.7895 40.6298 21.809 40.5667 21.809Z" fill="#1F3C49"/>
<path d="M38.7192 27.876C38.9206 27.652 39.2629 27.5544 39.5869 27.6116C39.9167 27.6644 40.2216 27.8977 40.3758 28.198C40.538 28.4941 40.5596 28.8779 40.4177 29.1804C40.283 29.4807 40.0095 29.7091 39.7107 29.7491C39.9184 29.5382 40.0341 29.3012 40.0772 29.067C40.1205 28.8343 40.077 28.6116 39.9725 28.4114C39.8661 28.2121 39.7063 28.0509 39.4893 27.9557C39.2716 27.8595 39.01 27.8223 38.7192 27.876Z" fill="#1F3C49"/>
<path d="M43.2787 30.8584L43.2823 30.8794C43.4391 31.8203 43.2254 32.7411 42.7466 33.4947C42.1774 34.3914 41.2347 35.0545 40.0913 35.2451C38.8595 35.4504 37.6687 35.0613 36.8261 34.2903C36.2246 33.7443 35.7991 33.0042 35.6568 32.1504L35.6532 32.1294L43.2787 30.8584Z" fill="#EA5353"/>
<path d="M42.7467 33.4947C42.1774 34.3914 41.2347 35.0545 40.0913 35.245C38.8595 35.4503 37.6687 35.0613 36.8262 34.2903C37.1185 34.1198 37.4234 33.9686 37.7324 33.8339C38.914 33.3177 40.2204 33.0137 41.5001 33.1874C41.9263 33.2458 42.3408 33.3542 42.7467 33.4947Z" fill="#FF948F"/>
<path d="M42.5689 30.9767C42.4798 31.0717 42.387 31.1628 42.291 31.2527C40.8732 32.5731 38.0736 33.3836 36.4694 31.9932L42.5689 30.9767Z" fill="white"/>
<path d="M34.9109 25.3534C34.4382 25.3534 34.4375 26.0885 34.9109 26.0885C35.3834 26.0885 35.3843 25.3534 34.9109 25.3534Z" fill="white"/>
<path d="M42.6805 24.537C42.2078 24.537 42.2071 25.2721 42.6805 25.2721C43.1532 25.2723 43.1539 24.537 42.6805 24.537Z" fill="white"/>
</g>
</g>
<defs>
<filter id="filter0_d_215_2711" x="0.5" y="0" width="61" height="61" filterUnits="userSpaceOnUse" color-interpolation-filters="sRGB">
<feFlood flood-opacity="0" result="BackgroundImageFix"/>
<feColorMatrix in="SourceAlpha" type="matrix" values="0 0 0 0 0 0 0 0 0 0 0 0 0 0 0 0 0 0 127 0" result="hardAlpha"/>
<feOffset dy="3.5"/>
<feGaussianBlur stdDeviation="2.75"/>
<feColorMatrix type="matrix" values="0 0 0 0 0 0 0 0 0 0 0 0 0 0 0 0 0 0 0.02 0"/>
<feBlend mode="normal" in2="BackgroundImageFix" result="effect1_dropShadow_215_2711"/>
<feBlend mode="normal" in="SourceGraphic" in2="effect1_dropShadow_215_2711" result="shape"/>
</filter>
</defs>
</svg>
