<svg width="18" height="20" viewBox="0 0 18 20" fill="none" xmlns="http://www.w3.org/2000/svg">
<g filter="url(#filter0_d_3_1460)">
<path d="M13.3146 8.4899C13.2757 8.44306 13.2375 8.39623 13.2 8.35104C12.6843 7.72791 12.3724 7.35184 12.3724 5.58785C12.3724 4.67459 12.1537 3.92525 11.7227 3.36324C11.4049 2.94806 10.9753 2.63311 10.409 2.40034C10.4017 2.39629 10.3952 2.39098 10.3898 2.38465C10.1861 1.70322 9.62878 1.24683 9.00019 1.24683C8.3716 1.24683 7.81449 1.70322 7.61082 2.38395C7.60538 2.39004 7.59896 2.39519 7.59183 2.39917C6.27043 2.94268 5.62824 3.98543 5.62824 5.58714C5.62824 7.35184 5.31675 7.72791 4.80066 8.35033C4.76316 8.39553 4.72496 8.44143 4.68605 8.4892C4.58555 8.61029 4.52188 8.75762 4.50256 8.91374C4.48325 9.06986 4.5091 9.22824 4.57707 9.37014C4.72168 9.67456 5.02988 9.86353 5.38168 9.86353H12.6213C12.9714 9.86353 13.2775 9.67479 13.4226 9.37178C13.4909 9.22984 13.517 9.07133 13.4978 8.91503C13.4787 8.75873 13.4151 8.61119 13.3146 8.4899Z" fill="#718096"/>
<path d="M9.00014 11.7378C9.33882 11.7375 9.67111 11.6457 9.96177 11.472C10.2524 11.2983 10.4906 11.0492 10.6511 10.7512C10.6586 10.7369 10.6624 10.721 10.6619 10.7048C10.6615 10.6887 10.6568 10.6729 10.6485 10.6591C10.6401 10.6452 10.6283 10.6338 10.6143 10.6259C10.6002 10.6179 10.5843 10.6138 10.5681 10.6138H7.43264C7.41645 10.6137 7.40052 10.6178 7.38641 10.6258C7.37229 10.6337 7.36047 10.6451 7.35209 10.659C7.34371 10.6728 7.33907 10.6886 7.3386 10.7047C7.33814 10.7209 7.34187 10.7369 7.34944 10.7512C7.50988 11.0492 7.74803 11.2982 8.03864 11.4719C8.32926 11.6456 8.6615 11.7375 9.00014 11.7378Z" fill="#718096"/>
</g>
<defs>
<filter id="filter0_d_3_1460" x="-0.999878" y="0.497803" width="20" height="19.9895" filterUnits="userSpaceOnUse" color-interpolation-filters="sRGB">
<feFlood flood-opacity="0" result="BackgroundImageFix"/>
<feColorMatrix in="SourceAlpha" type="matrix" values="0 0 0 0 0 0 0 0 0 0 0 0 0 0 0 0 0 0 127 0" result="hardAlpha"/>
<feOffset dy="4"/>
<feGaussianBlur stdDeviation="2"/>
<feComposite in2="hardAlpha" operator="out"/>
<feColorMatrix type="matrix" values="0 0 0 0 0 0 0 0 0 0 0 0 0 0 0 0 0 0 0.25 0"/>
<feBlend mode="normal" in2="BackgroundImageFix" result="effect1_dropShadow_3_1460"/>
<feBlend mode="normal" in="SourceGraphic" in2="effect1_dropShadow_3_1460" result="shape"/>
</filter>
</defs>
</svg>
