<svg width="4" height="14" viewBox="0 0 4 14" fill="none" xmlns="http://www.w3.org/2000/svg">
<path d="M2.2694 3.87532C3.162 3.87532 3.89232 3.12598 3.89232 2.21012C3.89232 1.29426 3.162 0.544922 2.2694 0.544922C1.3768 0.544922 0.646484 1.29426 0.646484 2.21012C0.646484 3.12598 1.3768 3.87532 2.2694 3.87532ZM2.2694 5.54052C1.3768 5.54052 0.646484 6.28986 0.646484 7.20573C0.646484 8.12159 1.3768 8.87093 2.2694 8.87093C3.162 8.87093 3.89232 8.12159 3.89232 7.20573C3.89232 6.28986 3.162 5.54052 2.2694 5.54052ZM2.2694 10.5361C1.3768 10.5361 0.646484 11.2855 0.646484 12.2013C0.646484 13.1172 1.3768 13.8665 2.2694 13.8665C3.162 13.8665 3.89232 13.1172 3.89232 12.2013C3.89232 11.2855 3.162 10.5361 2.2694 10.5361Z" fill="#A0AEC0"/>
</svg>
