<svg width="12" height="12" viewBox="0 0 12 12" fill="none" xmlns="http://www.w3.org/2000/svg">
<g clip-path="url(#clip0_3_1457)">
<path d="M7.79619 1.50627C7.3401 1.01385 6.70307 0.742676 5.99995 0.742676C5.29307 0.742676 4.65393 1.01221 4.19995 1.50158C3.74104 1.99635 3.51745 2.66877 3.56995 3.39486C3.67401 4.82736 4.76409 5.99267 5.99995 5.99267C7.2358 5.99267 8.32401 4.8276 8.42971 3.39533C8.48291 2.6758 8.25791 2.00478 7.79619 1.50627Z" fill="#718096"/>
<path d="M10.125 11.2422H1.87497C1.76698 11.2436 1.66004 11.2209 1.56193 11.1758C1.46381 11.1307 1.37699 11.0642 1.30778 10.9813C1.15543 10.7992 1.09403 10.5505 1.1395 10.2991C1.33731 9.20172 1.95465 8.27992 2.92497 7.63281C3.787 7.05836 4.87895 6.74219 5.99996 6.74219C7.12098 6.74219 8.21293 7.05859 9.07496 7.63281C10.0453 8.27969 10.6626 9.20148 10.8604 10.2988C10.9059 10.5503 10.8445 10.799 10.6921 10.9811C10.623 11.064 10.5361 11.1305 10.438 11.1757C10.3399 11.2208 10.233 11.2436 10.125 11.2422V11.2422Z" fill="#718096"/>
</g>
<defs>
<clipPath id="clip0_3_1457">
<rect width="12" height="12" fill="white" transform="translate(0 -0.00708008)"/>
</clipPath>
</defs>
</svg>
