<svg width="12" height="13" viewBox="0 0 12 13" fill="none" xmlns="http://www.w3.org/2000/svg">
<g clip-path="url(#clip0_3_1459)">
<path d="M6.00009 4.61922C5.62925 4.61922 5.26674 4.72909 4.9584 4.93494C4.65006 5.14078 4.40973 5.43336 4.26782 5.77567C4.1259 6.11798 4.08877 6.49465 4.16112 6.85804C4.23347 7.22144 4.41204 7.55524 4.67427 7.81723C4.93649 8.07922 5.27058 8.25764 5.6343 8.32993C5.99801 8.40221 6.37501 8.36511 6.71762 8.22332C7.06023 8.08153 7.35307 7.84142 7.5591 7.53335C7.76512 7.22528 7.87509 6.86309 7.87509 6.49257C7.87361 5.99618 7.67559 5.52055 7.32428 5.16955C6.97297 4.81855 6.49692 4.6207 6.00009 4.61922ZM10.0482 6.49257C10.0472 6.66762 10.0344 6.84239 10.0098 7.0157L11.1509 7.90836C11.2007 7.94936 11.2341 8.00668 11.2454 8.07009C11.2567 8.13349 11.2451 8.19884 11.2126 8.25446L10.1331 10.1166C10.1002 10.1717 10.049 10.2135 9.9884 10.2346C9.92779 10.2557 9.86166 10.2548 9.80165 10.232L8.45986 9.69343C8.18045 9.90839 7.87469 10.0868 7.55001 10.2243L7.34939 11.6476C7.33816 11.7113 7.30512 11.7692 7.25592 11.8113C7.20671 11.8534 7.1444 11.8772 7.07962 11.8785H4.92056C4.85696 11.8772 4.79566 11.8545 4.74667 11.8139C4.69767 11.7734 4.66388 11.7175 4.6508 11.6553L4.45017 10.232C4.12459 10.0961 3.81861 9.91742 3.54033 9.70068L2.19853 10.2393C2.13855 10.2621 2.07244 10.263 2.01183 10.242C1.95122 10.2209 1.89998 10.1791 1.86713 10.1241L0.787594 8.26219C0.7551 8.20657 0.743459 8.14122 0.754751 8.07782C0.766043 8.01441 0.799533 7.95709 0.849235 7.91608L1.99041 7.02343C1.96607 6.8475 1.95323 6.67017 1.95197 6.49257C1.95294 6.31753 1.96579 6.14275 1.99041 5.96944L0.849235 5.07679C0.799533 5.03578 0.766043 4.97846 0.754751 4.91505C0.743459 4.85165 0.7551 4.7863 0.787594 4.73069L1.86713 2.86858C1.89994 2.81345 1.95116 2.77165 2.01178 2.75054C2.0724 2.72942 2.13853 2.73034 2.19853 2.75313L3.54033 3.29172C3.81973 3.07675 4.12549 2.89836 4.45017 2.76086L4.6508 1.33758C4.66202 1.27383 4.69506 1.21595 4.74427 1.17384C4.79347 1.13172 4.85578 1.10799 4.92056 1.10669H7.07962C7.14322 1.10793 7.20452 1.13067 7.25352 1.1712C7.30251 1.21173 7.33631 1.26766 7.34939 1.32985L7.55001 2.75313C7.876 2.88894 8.18238 3.06763 8.46103 3.28446L9.80165 2.74587C9.86163 2.72306 9.92774 2.72211 9.98835 2.74318C10.049 2.76425 10.1002 2.806 10.1331 2.86108L11.2126 4.72319C11.2451 4.77881 11.2567 4.84416 11.2454 4.90756C11.2341 4.97096 11.2007 5.02829 11.1509 5.06929L10.0098 5.96195C10.0341 6.1378 10.0469 6.31505 10.0482 6.49257Z" fill="#718096"/>
</g>
<defs>
<clipPath id="clip0_3_1459">
<rect width="12" height="11.9894" fill="white" transform="translate(0.00012207 0.497803)"/>
</clipPath>
</defs>
</svg>
