<svg width="62" height="61" viewBox="0 0 62 61" fill="none" xmlns="http://www.w3.org/2000/svg">
<g filter="url(#filter0_d_215_2317)">
<rect x="6" y="2" width="50" height="50" rx="12" fill="#4FD1C5"/>
</g>
<mask id="mask0_215_2317" style="mask-type:alpha" maskUnits="userSpaceOnUse" x="6" y="2" width="50" height="50">
<rect x="6" y="2" width="50" height="50" rx="12" fill="#4FD1C5"/>
</mask>
<g mask="url(#mask0_215_2317)">
<mask id="mask1_215_2317" style="mask-type:luminance" maskUnits="userSpaceOnUse" x="-6" y="-6" width="78" height="78">
<path d="M32.5811 71.4124C53.8199 71.4124 71.0373 54.1949 71.0373 32.9561C71.0373 11.7173 53.8199 -5.50012 32.5811 -5.50012C11.3423 -5.50012 -5.87515 11.7173 -5.87515 32.9561C-5.87515 54.1949 11.3423 71.4124 32.5811 71.4124Z" fill="white"/>
</mask>
<g mask="url(#mask1_215_2317)">
<path d="M32.5811 71.4124C53.8199 71.4124 71.0373 54.1949 71.0373 32.9561C71.0373 11.7173 53.8199 -5.50012 32.5811 -5.50012C11.3423 -5.50012 -5.87515 11.7173 -5.87515 32.9561C-5.87515 54.1949 11.3423 71.4124 32.5811 71.4124Z" fill="#FCE3C3"/>
</g>
<mask id="mask2_215_2317" style="mask-type:luminance" maskUnits="userSpaceOnUse" x="-6" y="-6" width="78" height="78">
<path d="M32.5811 71.4124C53.8199 71.4124 71.0373 54.1949 71.0373 32.9561C71.0373 11.7173 53.8199 -5.50012 32.5811 -5.50012C11.3423 -5.50012 -5.87515 11.7173 -5.87515 32.9561C-5.87515 54.1949 11.3423 71.4124 32.5811 71.4124Z" fill="white"/>
</mask>
<g mask="url(#mask2_215_2317)">
<path d="M25.2061 45.5479C25.1375 44.5956 24.3082 43.8387 23.3202 44.1113C17.3922 45.748 11.2651 48.5083 8.50573 54.3628C7.42679 56.6517 7.04334 59.1993 6.51651 61.658C5.9269 64.4099 5.37903 67.1706 4.87325 69.9391C4.23325 73.4416 3.71049 76.9642 3.21488 80.4896C2.76441 83.6933 2.84856 87.6293 1.37073 90.5109C-1.38557 95.8854 -4.26115 101.357 -7.07854 106.762C-8.52345 109.533 -9.9638 112.307 -11.3894 115.088C-12.0854 116.446 -12.7773 117.806 -13.4663 119.168C-13.8016 119.831 -14.3875 120.618 -14.0308 121.377C-13.3309 122.866 -11.3183 123.687 -10.0011 124.555C-9.61326 124.81 -9.21725 125.069 -8.76915 125.196C-6.72801 125.768 -5.00482 122.457 -4.03193 121.172C-2.36847 118.975 -0.732508 116.757 0.875293 114.518C4.41836 109.586 8.06136 104.55 11.1745 99.2713C12.4043 97.1861 13.7148 95.0662 14.7004 92.859C17.0359 87.6285 17.9082 81.8597 19.806 76.4623C21.8091 70.7653 24.2648 65.0049 24.9387 58.9513C25.4338 54.5037 25.5278 50.0113 25.2061 45.5479Z" fill="#D23A64"/>
<path d="M72.5973 127.785C70.6725 128.277 64.335 127.626 64.1056 127.487C63.0747 126.863 63.0033 93.163 61.424 90.3919C60.5525 88.8649 57.1588 83.2753 53.6771 77.3727C50.3906 71.798 47.0252 65.9432 45.6383 62.9726C43.0432 57.4203 44.1381 44.3117 44.5314 42.8517C48.1292 43.7694 50.5679 44.83 50.8241 44.9434C50.839 44.9509 50.8465 44.9537 50.8465 44.9537C53.263 46.0622 56.1828 48.1449 57.4016 49.2741C65.5953 56.8719 73.305 80.5235 74.6099 86.9118C76.1728 94.5633 73.9591 127.438 72.5973 127.785Z" fill="#D23A64"/>
<path d="M59.4874 117.208C55.2234 120.406 8.09 120.634 8.09 118.4C8.09 109.874 10.0147 100.248 10.6227 91.7327C11.1412 84.4864 12.917 61.6541 13.1554 57.6168C13.3193 54.8145 13.7512 48.2313 13.7512 48.2313C13.7512 48.2313 17.9643 45.6972 20.1573 44.6558C23.1861 43.2166 26.307 42.3198 29.5966 41.8163C35.0716 40.9805 40.5226 41.8282 44.5316 42.8517C48.1294 43.7694 50.5681 44.83 50.8243 44.9434C50.8392 44.9508 50.8467 44.9537 50.8467 44.9537C50.8467 44.9537 48.5765 45.9293 48.0161 49.572C45.6324 65.0657 53.6712 77.2655 53.6712 77.2655C53.6712 77.2655 55.8537 90.6958 57.1037 97.5429C57.8977 101.89 60.0833 116.761 59.4874 117.208Z" fill="#C6305F"/>
<path d="M21.4672 16.0369C21.7947 14.8212 22.324 13.6952 23.0195 12.7997C24.8794 10.4051 28.0301 8.64465 31.1274 9.09207C33.941 9.49843 36.4583 10.6491 37.9354 13.1894C39.4815 15.848 39.4302 19.4283 37.5856 21.9306C36.4829 23.4264 34.973 24.6344 33.2839 25.4059C32.7773 25.6374 32.2521 25.8284 31.7146 25.975C28.8638 26.7529 25.1309 26.4207 22.9628 24.2128C20.9086 22.1207 20.7429 18.725 21.4672 16.0369Z" fill="#32334C"/>
<path d="M38.9379 27.91C38.7995 28.6763 38.6639 29.4437 38.527 30.2098C38.518 30.2556 38.5105 30.3026 38.5029 30.3482C38.499 30.3696 38.4949 30.3894 38.491 30.4108C38.3093 31.4266 38.1288 32.4409 38.0044 33.4617C37.9527 33.8708 37.9116 34.2834 37.8826 34.6962C37.8493 35.1574 37.8313 35.6216 37.8266 36.0846C37.8134 36.9705 37.8376 37.8572 37.8648 38.742C37.8972 39.8209 37.9281 40.9 37.9603 41.9776C37.3251 42.6677 36.4356 43.5318 35.4845 44.3001C33.6332 44.8126 31.4779 45.154 29.6077 45.2224C28.342 44.484 27.2196 43.401 27.4083 42.4099L27.4667 38.5204L27.4694 37.8826L27.474 36.1954L27.483 33.7939C28.3106 33.5913 29.0855 33.2155 29.8531 32.842C32.3998 31.5963 34.9303 30.3192 37.4107 28.945C37.4776 28.9087 37.5414 28.8726 37.604 28.8381C38.1028 28.5609 38.5109 28.3239 38.9379 27.91Z" fill="#FFCFCA"/>
<path d="M27.4668 38.5211C30.3331 37.7804 33.0907 36.633 35.5954 35.066C36.392 34.5686 37.2183 34.0356 38.0046 33.462C38.1281 32.4406 38.3096 31.4271 38.4907 30.4113C38.6397 29.5782 38.7883 28.7428 38.9373 27.9097C38.4576 28.3756 37.9995 28.6191 37.4109 28.9452C34.931 30.3187 32.4004 31.5968 29.8531 32.8417C29.0857 33.2158 28.3111 33.5913 27.4825 33.794L27.4668 38.5211Z" fill="#F9BFBB"/>
<path d="M21.8179 30.9701C22.3653 32.5437 23.1641 33.9916 24.5481 34.9703C25.7757 35.8378 27.284 36.3112 28.7853 36.3272C30.4469 36.3445 32.072 35.8528 33.5301 35.0404C34.2558 34.6359 34.9411 34.1523 35.5672 33.6117C36.6619 32.667 37.5995 31.5557 38.4195 30.3688C39.7516 28.4369 40.8626 26.2141 41.479 23.8898C42.1805 21.2621 42.2521 18.5037 41.307 15.8955C40.9246 14.832 40.3626 13.8354 39.6522 12.9545C36.659 9.23681 31.2175 8.32857 27.1763 10.8731C25.0714 12.2 23.442 14.2761 22.5083 16.5681C22.2119 17.2945 21.9501 18.0426 21.729 18.8042C20.5803 22.7499 20.4707 27.0926 21.8179 30.9701Z" fill="#FFCFCA"/>
<path d="M37.2761 29.6746C38.5322 30.657 40.3224 30.9131 41.7971 30.3021C43.043 29.787 44.0159 28.668 44.3816 27.3739C44.4474 27.1389 44.4932 26.8995 44.5187 26.6533C44.5618 26.2251 44.538 25.7871 44.4136 25.3755C44.1013 24.3602 43.127 23.602 42.0732 23.4761C41.0172 23.3505 39.9262 23.829 39.2446 24.6442L38.4877 26.5788L37.2761 29.6746Z" fill="#FFCFCA"/>
<path d="M30.2584 24.2812C30.4664 24.3032 30.7721 23.987 30.8783 23.4982C30.9343 23.2406 30.923 22.9795 30.8473 22.7815C30.8212 22.7131 30.7465 22.5509 30.6199 22.5232C30.6133 22.5219 30.6069 22.5207 30.6004 22.52C30.3922 22.4979 30.0867 22.8142 29.9804 23.303C29.9245 23.5606 29.9358 23.8219 30.0115 24.0197C30.0376 24.0881 30.1123 24.2503 30.2389 24.2778C30.2453 24.2793 30.2517 24.2803 30.2584 24.2812Z" fill="#1F3C49"/>
<path d="M24.036 23.3366C24.2118 23.3551 24.5233 23.0763 24.631 22.5799C24.6853 22.3303 24.6743 22.0773 24.6012 21.8857C24.5484 21.7475 24.4698 21.6577 24.3859 21.6394C24.3799 21.638 24.3738 21.637 24.3677 21.6365C24.1919 21.6178 23.8804 21.8968 23.7727 22.3932C23.7185 22.6428 23.7294 22.8958 23.8025 23.0874C23.8555 23.2256 23.9339 23.3154 24.0178 23.3335C24.024 23.3349 24.0301 23.3359 24.036 23.3366Z" fill="#1F3C49"/>
<path d="M27.1136 24.6418C26.9599 24.4533 26.6876 24.3615 26.4241 24.3951C26.1562 24.425 25.9012 24.6013 25.7651 24.8374C25.6229 25.0701 25.5905 25.3785 25.6932 25.6281C25.7902 25.8755 26.0018 26.0703 26.2414 26.1142C26.0822 25.9361 25.9979 25.7404 25.9723 25.5499C25.9465 25.3604 25.9901 25.1826 26.082 25.0251C26.1755 24.8685 26.3108 24.7446 26.4894 24.6763C26.6688 24.6072 26.8812 24.5872 27.1136 24.6418Z" fill="#1F3C49"/>
<path d="M32.1524 20.3684C32.1894 20.3559 32.2213 20.3285 32.2386 20.2901C32.2715 20.2168 32.2388 20.1308 32.1655 20.0979C31.6281 19.8568 30.9844 19.8518 30.4428 20.0826C30.369 20.1142 30.3347 20.1996 30.3663 20.2737C30.3979 20.3475 30.483 20.3818 30.5572 20.3502C31.0258 20.1487 31.5822 20.155 32.0465 20.3635C32.0813 20.3789 32.119 20.3798 32.1524 20.3684Z" fill="#1F3C49"/>
<path d="M25.9031 19.4151C25.9362 19.4083 25.967 19.3899 25.9893 19.3611C26.0381 19.2974 26.0261 19.206 25.9625 19.1571C25.5393 18.8322 24.9724 18.6879 24.4458 18.7708C24.3686 18.7837 24.3122 18.8577 24.3246 18.9372C24.337 19.0165 24.4115 19.0708 24.4909 19.0584C24.9404 18.9878 25.4244 19.1109 25.7855 19.3882C25.8203 19.4147 25.8632 19.4232 25.9031 19.4151Z" fill="#1F3C49"/>
<path d="M30.4574 22.8374C30.7657 22.7907 30.8387 23.2703 30.5299 23.317C30.2216 23.3637 30.1486 22.8843 30.4574 22.8374Z" fill="white"/>
<path d="M24.1369 21.882C24.4452 21.8353 24.5182 22.3148 24.2094 22.3615C23.9011 22.4083 23.8281 21.9287 24.1369 21.882Z" fill="white"/>
<path d="M23.7013 26.9551C23.6686 27.5868 23.8111 28.1795 24.0809 28.6768C24.5127 29.4751 25.272 30.0212 26.1605 30.0672C27.071 30.1144 27.8998 29.6261 28.4076 28.8458C28.708 28.3897 28.897 27.8332 28.9284 27.2263C28.9296 27.2045 28.9277 27.1825 28.9289 27.1592L23.7076 26.8884C23.7066 26.9117 23.7025 26.9332 23.7013 26.9551Z" fill="#D55454"/>
<path d="M23.9198 26.8995C24.4727 27.5505 25.3106 27.9859 26.266 28.0355C27.2214 28.085 28.0998 27.7386 28.7171 27.1485L23.9198 26.8995Z" fill="white"/>
<path d="M24.0809 28.6768C24.5127 29.4751 25.272 30.0213 26.1606 30.0672C27.071 30.1144 27.8999 29.6261 28.4077 28.8458C27.5264 28.6035 26.6093 28.4876 25.6957 28.5058C25.1534 28.517 24.6132 28.5748 24.0809 28.6768Z" fill="#F37C7C"/>
<path d="M29.8619 26.3949C29.7768 27.1876 30.5802 27.9239 31.6566 28.0396C32.7329 28.1554 33.6744 27.6065 33.7596 26.8138C33.8448 26.0211 33.0414 25.2847 31.965 25.169C30.8888 25.0532 29.9473 25.6022 29.8619 26.3949Z" fill="#F9BFBB"/>
<path d="M21.5132 24.4393C21.4557 24.9746 21.9983 25.4719 22.7252 25.5501C23.452 25.6282 24.088 25.2576 24.1455 24.7223C24.203 24.187 23.6604 23.6897 22.9335 23.6115C22.2066 23.5334 21.5707 23.904 21.5132 24.4393Z" fill="#F9BFBB"/>
<path d="M21.4947 12.7091C21.3019 10.7129 24.3847 8.53856 30.125 7.53513C34.5612 6.75973 40.4678 8.27914 43.5198 11.5523C45.3171 13.4797 46.4029 16.1035 46.1738 18.7414C45.9863 20.901 45.0379 23.0217 44.1649 24.9899C43.531 23.754 41.7624 23.2728 40.4103 23.71C39.6204 23.9654 38.9743 24.474 38.4612 25.1006C38.4411 22.5856 37.8044 20.1512 37.8055 17.6317C37.7968 17.683 33.6377 17.1237 33.343 17.0857C30.9367 16.7757 28.5482 16.4693 26.212 15.7944C25.2164 15.5068 24.2355 15.1703 23.2745 14.7862C22.5699 14.5049 21.5518 13.3021 21.4947 12.7091Z" fill="#32334C"/>
<path d="M39.3687 42.5708C39.2744 43.603 37.3045 44.4402 34.8248 44.9438C32.9424 45.3269 30.7688 45.5183 28.8982 45.457C27.1709 45.4009 25.7045 45.1304 24.9674 44.599C24.2424 44.0745 24.4845 37.7565 27.0243 37.9861C27.0812 37.992 27.1645 37.9912 27.2732 37.9868C27.9417 37.9642 29.5283 37.7738 31.3348 37.5597C33.5765 37.292 36.1555 36.9869 37.73 36.9102C38.5248 36.8708 39.0648 36.8905 39.1797 37.0022C39.9846 37.785 39.5236 40.8586 39.3687 42.5708Z" fill="#D23A64"/>
</g>
</g>
<defs>
<filter id="filter0_d_215_2317" x="0.5" y="0" width="61" height="61" filterUnits="userSpaceOnUse" color-interpolation-filters="sRGB">
<feFlood flood-opacity="0" result="BackgroundImageFix"/>
<feColorMatrix in="SourceAlpha" type="matrix" values="0 0 0 0 0 0 0 0 0 0 0 0 0 0 0 0 0 0 127 0" result="hardAlpha"/>
<feOffset dy="3.5"/>
<feGaussianBlur stdDeviation="2.75"/>
<feColorMatrix type="matrix" values="0 0 0 0 0 0 0 0 0 0 0 0 0 0 0 0 0 0 0.02 0"/>
<feBlend mode="normal" in2="BackgroundImageFix" result="effect1_dropShadow_215_2317"/>
<feBlend mode="normal" in="SourceGraphic" in2="effect1_dropShadow_215_2317" result="shape"/>
</filter>
</defs>
</svg>
