<svg width="176" height="170" viewBox="0 0 176 170" fill="none" xmlns="http://www.w3.org/2000/svg">
<g opacity="0.2">
<path d="M355.5 169.101C355.5 266.907 276.143 346.195 178.25 346.195C80.3571 346.195 1 266.907 1 169.101C1 71.2955 80.3571 -7.99243 178.25 -7.99243C276.143 -7.99243 355.5 71.2955 355.5 169.101Z" stroke="white"/>
<path d="M331.469 169.101C331.469 253.646 262.871 322.185 178.25 322.185C93.6293 322.185 25.0314 253.646 25.0314 169.101C25.0314 84.5561 93.6293 16.0179 178.25 16.0179C262.871 16.0179 331.469 84.5561 331.469 169.101Z" stroke="white"/>
<path d="M304.122 169.101C304.122 238.557 247.768 294.862 178.25 294.862C108.732 294.862 52.3776 238.557 52.3776 169.101C52.3776 99.6456 108.732 43.34 178.25 43.34C247.768 43.34 304.122 99.6456 304.122 169.101Z" stroke="white"/>
<path d="M276.776 169.101C276.776 223.467 232.665 267.54 178.25 267.54C123.835 267.54 79.7238 223.467 79.7238 169.101C79.7238 114.735 123.835 70.6621 178.25 70.6621C232.665 70.6621 276.776 114.735 276.776 169.101Z" stroke="white"/>
<path d="M250.259 169.101C250.259 208.835 218.02 241.046 178.25 241.046C138.48 241.046 106.241 208.835 106.241 169.101C106.241 129.368 138.48 97.1562 178.25 97.1562C218.02 97.1562 250.259 129.368 250.259 169.101Z" stroke="white"/>
<path d="M226.227 169.101C226.227 195.574 204.748 217.036 178.25 217.036C151.753 217.036 130.273 195.574 130.273 169.101C130.273 142.628 151.753 121.167 178.25 121.167C204.748 121.167 226.227 142.628 226.227 169.101Z" stroke="white"/>
<path d="M207 169.101C207 184.965 194.129 197.826 178.25 197.826C162.371 197.826 149.5 184.965 149.5 169.101C149.5 153.238 162.371 140.377 178.25 140.377C194.129 140.377 207 153.238 207 169.101Z" stroke="white"/>
</g>
</svg>
